<?xml version="1.0" encoding="UTF-8"?>
<svg version="1.1" xmlns="http://www.w3.org/2000/svg" width="512" height="384">
<path d="M0 0 C1.69508949 -0.00430527 1.69508949 -0.00430527 3.42442322 -0.00869751 C5.80549625 -0.01073278 8.1865862 -0.00524064 10.56762695 0.00732422 C14.20627271 0.02339963 17.84381023 0.00744865 21.48242188 -0.01171875 C23.80078369 -0.00973652 26.11914482 -0.00589326 28.4375 0 C29.52200943 -0.00607269 30.60651886 -0.01214539 31.72389221 -0.0184021 C38.06199184 0.0404724 42.90053409 0.43241634 47.796875 4.8984375 C51.51200465 9.66970768 52.27798969 12.63585221 52.25 18.59765625 C52.24677734 19.80615234 52.24355469 21.01464844 52.24023438 22.25976562 C52.23185547 23.52240234 52.22347656 24.78503906 52.21484375 26.0859375 C52.21033203 27.36017578 52.20582031 28.63441406 52.20117188 29.94726562 C52.18937248 33.09770314 52.17290972 36.24804699 52.15234375 39.3984375 C52.81553619 39.38955505 53.47872864 39.38067261 54.16201782 39.371521 C61.07260509 39.28293794 67.98303071 39.22265735 74.89404297 39.17871094 C77.47223463 39.15861187 80.05038079 39.13132809 82.62841797 39.09667969 C86.33702836 39.04808903 90.04503531 39.02545092 93.75390625 39.0078125 C94.90412262 38.98716736 96.05433899 38.96652222 97.2394104 38.94525146 C107.58175357 38.94236004 107.58175357 38.94236004 112.15234375 43.3984375 C116.87807213 49.43837219 116.72448541 54.98893508 116.6484375 62.46484375 C116.64989273 63.61709946 116.65134796 64.76935516 116.65284729 65.95652771 C116.65119214 68.38469988 116.63967412 70.81288296 116.61889648 73.2409668 C116.58991266 76.95211423 116.59830288 80.66183459 116.61132812 84.37304688 C116.60509108 86.73698609 116.59670042 89.10092081 116.5859375 91.46484375 C116.58887314 92.57122696 116.59180878 93.67761017 116.59483337 94.81752014 C116.51678039 101.20525348 116.15397016 106.10759188 111.65234375 111.04296875 C107.16643281 114.53590461 104.02322655 115.75094725 98.28125 115.6875 C93.93156544 115.09690063 90.73446367 112.65322226 87.33984375 109.9609375 C83.99377488 105.5582153 83.7705963 100.70781689 83.15234375 95.3984375 C78.30947421 101.65559638 73.49129021 107.92788602 68.76586914 114.27441406 C63.78349306 120.96552368 58.68513014 127.53815334 53.44628906 134.03027344 C49.63645977 138.76187603 45.96803854 143.5853293 42.34375 148.4609375 C37.26701837 155.26611073 32.05223553 161.96774387 26.828125 168.66015625 C21.20798098 175.86162467 15.6114744 183.07382927 10.15234375 190.3984375 C4.69938919 197.71475917 -0.88902748 204.91993226 -6.5078125 212.109375 C-8.61668467 214.80984099 -10.70977533 217.52074501 -12.78125 220.25 C-13.45293213 221.13328979 -13.45293213 221.13328979 -14.13818359 222.03442383 C-15.31629342 223.58722233 -16.49035496 225.14309003 -17.6640625 226.69921875 C-22.38394555 232.5336359 -26.61825329 236.94528718 -34.34765625 237.7734375 C-42.88799294 236.85840143 -47.6732094 230.96830543 -53.40234375 225.13671875 C-54.30389191 224.23092575 -55.20544006 223.32513275 -56.13430786 222.39189148 C-58.51692418 219.99536522 -60.89282512 217.59256173 -63.26568604 215.18640137 C-65.69374854 212.72751892 -68.13044433 210.27722431 -70.56640625 207.82617188 C-75.33478351 203.02476759 -80.09448701 198.21489495 -84.84765625 193.3984375 C-85.39184708 193.7508551 -85.9360379 194.10327271 -86.49671936 194.46636963 C-87.21331223 194.92380554 -87.92990509 195.38124146 -88.66821289 195.85253906 C-89.37740372 196.30808167 -90.08659454 196.76362427 -90.817276 197.23297119 C-95.04591471 199.66026822 -99.19903757 199.43956893 -103.84765625 198.3984375 C-107.32000077 196.5159741 -110.02470045 194.14194802 -112.84765625 191.3984375 C-113.54503906 190.73070312 -114.24242187 190.06296875 -114.9609375 189.375 C-116.62243819 187.74346625 -118.24040393 186.08289153 -119.84765625 184.3984375 C-124.40436726 189.57651819 -128.54694163 194.94369373 -132.59765625 200.5234375 C-137.43700638 207.14179222 -142.34210252 213.69028807 -147.36328125 220.171875 C-151.73530723 225.82875563 -155.99482611 231.57157443 -160.27587891 237.29736328 C-162.98372217 240.91707424 -165.697272 244.53250408 -168.41015625 248.1484375 C-169.39065025 249.45571023 -170.37112064 250.76300067 -171.3515625 252.0703125 C-171.78871582 252.64974609 -172.22586914 253.22917969 -172.67626953 253.82617188 C-173.6626921 255.15017383 -174.61654515 256.49835147 -175.5625 257.8515625 C-175.98660156 258.36203125 -176.41070312 258.8725 -176.84765625 259.3984375 C-177.50765625 259.3984375 -178.16765625 259.3984375 -178.84765625 259.3984375 C-179.0590625 260.048125 -179.27046875 260.6978125 -179.48828125 261.3671875 C-180.66667834 263.99487757 -181.90169757 266.06970819 -183.51953125 268.4296875 C-184.26783203 269.52216797 -184.26783203 269.52216797 -185.03125 270.63671875 C-186.08061145 272.15188154 -187.14066023 273.6596949 -188.2109375 275.16015625 C-188.95150391 276.25263672 -188.95150391 276.25263672 -189.70703125 277.3671875 C-190.16561523 278.02138672 -190.62419922 278.67558594 -191.09667969 279.34960938 C-192.08788158 281.44231401 -192.08788158 281.44231401 -191.18505859 283.83276367 C-189.79123416 286.50667769 -188.27675082 288.98077919 -186.58984375 291.48046875 C-185.65205078 292.87749023 -185.65205078 292.87749023 -184.6953125 294.30273438 C-184.04433594 295.26244141 -183.39335937 296.22214844 -182.72265625 297.2109375 C-182.06394531 298.18998047 -181.40523438 299.16902344 -180.7265625 300.17773438 C-179.10439836 302.58747097 -177.47798779 304.99422244 -175.84765625 307.3984375 C-172.92927763 304.48005888 -171.94055217 300.82159156 -170.51171875 297.0234375 C-170.03078262 295.76478882 -170.03078262 295.76478882 -169.54013062 294.48071289 C-168.51258364 291.78851547 -167.49241848 289.09359211 -166.47265625 286.3984375 C-165.13304828 282.87701807 -163.79096818 279.35654146 -162.44921875 275.8359375 C-162.12963196 274.99651611 -161.81004517 274.15709473 -161.48077393 273.29223633 C-155.16469679 256.71547804 -155.16469679 256.71547804 -153.84765625 255.3984375 C-151.66126172 255.32584804 -149.47265236 255.31469967 -147.28515625 255.3359375 C-145.48884766 255.34947266 -145.48884766 255.34947266 -143.65625 255.36328125 C-142.72941406 255.37488281 -141.80257812 255.38648438 -140.84765625 255.3984375 C-129.09795882 284.1830006 -129.09795882 284.1830006 -125.0625 294.359375 C-124.25832359 296.37110892 -123.43818709 298.37654251 -122.6015625 300.375 C-122.22902344 301.26960938 -121.85648438 302.16421875 -121.47265625 303.0859375 C-121.15554687 303.83230469 -120.8384375 304.57867187 -120.51171875 305.34765625 C-119.84765625 307.3984375 -119.84765625 307.3984375 -119.84765625 311.3984375 C-124.13765625 311.3984375 -128.42765625 311.3984375 -132.84765625 311.3984375 C-134.82765625 305.9534375 -134.82765625 305.9534375 -136.84765625 300.3984375 C-144.10765625 300.0684375 -151.36765625 299.7384375 -158.84765625 299.3984375 C-159.17765625 301.0484375 -159.50765625 302.6984375 -159.84765625 304.3984375 C-160.49912474 306.73605973 -161.1629223 309.07034207 -161.84765625 311.3984375 C-185.01343341 314.11097154 -185.01343341 314.11097154 -191.20605469 309.72998047 C-195.23260523 305.20559047 -197.65346372 299.99862861 -199.84765625 294.3984375 C-203.46228431 297.57994019 -205.08088401 300.84649494 -207.16015625 305.1484375 C-208.548442 307.72693288 -209.75285946 309.21053863 -211.84765625 311.3984375 C-217.06462729 312.54543113 -221.60271185 312.197472 -226.84765625 311.3984375 C-225.5337202 308.66809729 -224.09075814 306.13336893 -222.421875 303.60546875 C-221.72094727 302.53522461 -221.72094727 302.53522461 -221.00585938 301.44335938 C-220.03790999 299.97408162 -219.06918067 298.50531734 -218.09960938 297.03710938 C-214.76920514 291.94810591 -211.73230067 286.75248252 -208.84765625 281.3984375 C-209.5746875 280.32360107 -209.5746875 280.32360107 -210.31640625 279.22705078 C-212.10916095 276.57196384 -213.89777047 273.91414749 -215.68359375 271.25439453 C-216.45797809 270.10288762 -217.23401427 268.95248981 -218.01171875 267.80322266 C-219.12801803 266.1529792 -220.2379348 264.49842395 -221.34765625 262.84375 C-222.01796875 261.84875488 -222.68828125 260.85375977 -223.37890625 259.82861328 C-224.84765625 257.3984375 -224.84765625 257.3984375 -224.84765625 255.3984375 C-220.07490701 254.86885847 -215.60099311 254.61859317 -210.84765625 255.3984375 C-207.84203847 257.9344275 -206.47736769 260.86930886 -204.84765625 264.3984375 C-204.07969998 265.60140697 -203.29128835 266.79186357 -202.47265625 267.9609375 C-201.93640625 268.7653125 -201.40015625 269.5696875 -200.84765625 270.3984375 C-197.87900116 267.85387599 -196.48568115 264.90849085 -194.84765625 261.3984375 C-195.32976562 261.02332031 -195.811875 260.64820313 -196.30859375 260.26171875 C-201.30324094 256.21503521 -203.48228986 253.62584061 -204.22265625 247.0859375 C-203.39402855 238.93776515 -198.14925047 232.85007957 -193.16015625 226.6484375 C-191.90156813 225.05790511 -190.64375569 223.46675862 -189.38671875 221.875 C-188.77860352 221.10833008 -188.17048828 220.34166016 -187.54394531 219.55175781 C-183.88380939 214.90547128 -180.37701512 210.14435568 -176.84765625 205.3984375 C-175.41100148 203.4811372 -173.97347802 201.56448757 -172.53515625 199.6484375 C-171.79652344 198.66359375 -171.05789062 197.67875 -170.296875 196.6640625 C-164.9296875 189.5078125 -164.9296875 189.5078125 -163.39746094 187.46508789 C-162.36785125 186.09211278 -161.33855213 184.71890472 -160.30957031 183.34545898 C-157.94274315 180.18702923 -155.57238929 177.03153886 -153.1875 173.88671875 C-152.39472656 172.83871094 -151.60195312 171.79070312 -150.78515625 170.7109375 C-150.09292969 169.79957031 -149.40070313 168.88820312 -148.6875 167.94921875 C-146.9386198 165.52455045 -145.38578331 162.9619826 -143.84765625 160.3984375 C-158.20265625 146.0434375 -158.20265625 146.0434375 -172.84765625 131.3984375 C-176.17852998 134.72931123 -178.81651315 138.00439297 -181.47265625 141.8359375 C-185.13382788 147.04018609 -188.90615752 152.12736703 -192.81494141 157.15014648 C-196.57709879 162.00470679 -200.21603585 166.94574021 -203.84765625 171.8984375 C-208.66940814 178.4709021 -213.55884285 184.97803295 -218.55078125 191.421875 C-220.86197633 194.41699516 -223.14151873 197.43347984 -225.41015625 200.4609375 C-226.13976562 201.43289062 -226.869375 202.40484375 -227.62109375 203.40625 C-229.1610963 205.47579728 -230.68682235 207.551245 -232.19921875 209.640625 C-241.4221444 222.25660022 -241.4221444 222.25660022 -247.84765625 224.3984375 C-253.05266646 224.83218835 -256.68853129 224.7526611 -261.23828125 221.7890625 C-265.48873327 218.11634182 -267.5236265 214.04558875 -268.59765625 208.5859375 C-267.91706198 199.38000452 -259.12670137 191.03127098 -253.6953125 184.0859375 C-250.4525589 179.91913047 -247.34073928 175.65887078 -244.22265625 171.3984375 C-238.46118432 163.54030009 -232.59003035 155.77188869 -226.67382812 148.02978516 C-218.83134424 137.76647634 -211.07477671 127.44423361 -203.43603516 117.02832031 C-191.41591232 100.65030433 -191.41591232 100.65030433 -186.84765625 95.3984375 C-186.37714844 94.83640625 -185.90664062 94.274375 -185.421875 93.6953125 C-182.34740237 90.5428955 -179.56297246 90.02366413 -175.34765625 89.8359375 C-170.43457233 90.06894283 -167.64409136 91.14435026 -163.84765625 94.3984375 C-163.00203125 95.0171875 -162.15640625 95.6359375 -161.28515625 96.2734375 C-158.45041572 98.74474976 -156.22419091 101.48718254 -153.84765625 104.3984375 C-151.50410965 106.85630345 -149.27809528 109.08433334 -146.53515625 111.0859375 C-145.69984375 111.735625 -145.69984375 111.735625 -144.84765625 112.3984375 C-144.84765625 113.0584375 -144.84765625 113.7184375 -144.84765625 114.3984375 C-144.18765625 114.3984375 -143.52765625 114.3984375 -142.84765625 114.3984375 C-140.22265625 116.7734375 -140.22265625 116.7734375 -137.84765625 119.3984375 C-137.84765625 120.0584375 -137.84765625 120.7184375 -137.84765625 121.3984375 C-137.18765625 121.3984375 -136.52765625 121.3984375 -135.84765625 121.3984375 C-135.84765625 122.0584375 -135.84765625 122.7184375 -135.84765625 123.3984375 C-135.18765625 123.3984375 -134.52765625 123.3984375 -133.84765625 123.3984375 C-131.22265625 125.7734375 -131.22265625 125.7734375 -128.84765625 128.3984375 C-128.84765625 129.0584375 -128.84765625 129.7184375 -128.84765625 130.3984375 C-128.18765625 130.3984375 -127.52765625 130.3984375 -126.84765625 130.3984375 C-126.18765625 131.3884375 -125.52765625 132.3784375 -124.84765625 133.3984375 C-124.31140625 133.1303125 -123.77515625 132.8621875 -123.22265625 132.5859375 C-122.43890625 132.1940625 -121.65515625 131.8021875 -120.84765625 131.3984375 C-119.48640625 130.5940625 -119.48640625 130.5940625 -118.09765625 129.7734375 C-112.75305091 127.51225832 -108.79779817 127.62573976 -103.53515625 129.7109375 C-97.93114882 133.26883059 -93.40674341 138.61675476 -88.84765625 143.3984375 C-83.13832861 136.67597238 -77.64056119 129.88270559 -72.390625 122.79296875 C-69.29462247 118.63267604 -66.09955395 114.54977775 -62.91015625 110.4609375 C-61.6953009 108.90235279 -60.480457 107.34375916 -59.265625 105.78515625 C-58.68216309 105.03669434 -58.09870117 104.28823242 -57.49755859 103.51708984 C-52.09644369 96.58147647 -46.74477044 89.61207778 -41.49267578 82.56298828 C-36.56977583 75.95747813 -31.53863843 69.46669484 -26.36132812 63.05883789 C-21.16572426 56.60263616 -16.21292773 49.9706124 -11.27441406 43.31689453 C-8.80961796 40.00266323 -6.32817619 36.70090809 -3.84765625 33.3984375 C-4.57210938 33.30046875 -5.2965625 33.2025 -6.04296875 33.1015625 C-11.84746929 32.20379975 -16.29877153 31.37871163 -20.84765625 27.3984375 C-24.73736874 21.9659304 -24.7482772 16.87433097 -23.84765625 10.3984375 C-22.14754481 6.08393247 -20.03091483 4.04259792 -15.97705078 1.83569336 C-10.80689863 -0.31721983 -5.51855614 -0.03095885 0 0 Z M19.15234375 55.3984375 C17.30266081 57.77224806 15.49971006 60.16397079 13.71484375 62.5859375 C12.60998855 64.07207092 11.50451203 65.55774261 10.3984375 67.04296875 C9.84655762 67.78498535 9.29467773 68.52700195 8.72607422 69.29150391 C3.85560773 75.81215637 -1.15240957 82.2290704 -6.16015625 88.64453125 C-11.78388954 95.85144908 -17.38463755 103.06861261 -22.84765625 110.3984375 C-28.86577304 118.47304691 -35.05391147 126.41064996 -41.25048828 134.34863281 C-49.52745341 144.97128632 -57.67211268 155.69769654 -65.84765625 166.3984375 C-60.32115291 173.13924175 -54.15316066 179.2055504 -47.97265625 185.3359375 C-46.89169351 186.41187477 -45.81096242 187.48804481 -44.73046875 188.56445312 C-42.10552984 191.17847042 -39.47746997 193.78932346 -36.84765625 196.3984375 C-32.82845953 194.57458708 -31.05780089 192.40333728 -28.41015625 188.8359375 C-27.52624999 187.65739581 -26.64212413 186.4790188 -25.7578125 185.30078125 C-25.28875488 184.67026855 -24.81969727 184.03975586 -24.33642578 183.39013672 C-21.70458562 179.86921969 -19.02227221 176.38689641 -16.34765625 172.8984375 C-15.23158952 171.43894072 -14.11570201 169.97930686 -13 168.51953125 C-7.02391933 160.70520888 -1.02755422 152.90753093 5.02197266 145.14990234 C12.84064951 135.12155214 20.55777287 125.01845996 28.25341797 114.89550781 C31.0908296 111.16433706 33.93231359 107.43630177 36.77734375 103.7109375 C37.29296875 103.03490479 37.80859375 102.35887207 38.33984375 101.66235352 C41.17721215 97.95069003 44.03977429 94.2607749 46.9296875 90.58984375 C47.56116699 89.78571045 48.19264648 88.98157715 48.84326172 88.15307617 C50.0530572 86.61487155 51.26667024 85.0796584 52.48486328 83.5480957 C55.80005354 79.33074368 58.61436688 75.12689318 61.15234375 70.3984375 C57.13507898 69.76047564 53.22455213 69.25670066 49.15234375 69.3984375 C46.62042876 71.58342506 46.62042876 71.58342506 45.15234375 74.3984375 C41.16971679 76.6588474 37.67418691 76.85828596 33.15234375 76.3984375 C28.41792341 74.9976165 25.13314934 73.10068787 22.71484375 68.7109375 C20.86970556 64.39477724 20.36799078 60.05641327 20.15234375 55.3984375 C19.82234375 55.3984375 19.49234375 55.3984375 19.15234375 55.3984375 Z M-147.84765625 271.3984375 C-150.51915333 277.00080031 -152.52359699 282.32983257 -153.84765625 288.3984375 C-149.55765625 288.3984375 -145.26765625 288.3984375 -140.84765625 288.3984375 C-142.82765625 282.7884375 -144.80765625 277.1784375 -146.84765625 271.3984375 C-147.17765625 271.3984375 -147.50765625 271.3984375 -147.84765625 271.3984375 Z " fill="#C8992D" transform="translate(302.84765625,47.6015625)"/>
<path d="M0 0 C1.69508949 -0.00430527 1.69508949 -0.00430527 3.42442322 -0.00869751 C5.80549625 -0.01073278 8.1865862 -0.00524064 10.56762695 0.00732422 C14.20627271 0.02339963 17.84381023 0.00744865 21.48242188 -0.01171875 C23.80078369 -0.00973652 26.11914482 -0.00589326 28.4375 0 C29.52200943 -0.00607269 30.60651886 -0.01214539 31.72389221 -0.0184021 C38.06199184 0.0404724 42.90053409 0.43241634 47.796875 4.8984375 C52.98067377 11.55589144 52.5315515 17.53951341 52.71484375 25.7109375 C52.77736328 26.93490234 52.83988281 28.15886719 52.90429688 29.41992188 C53.06378881 38.30797249 53.06378881 38.30797249 50.43701172 41.45068359 C48.3046875 43.00390625 48.3046875 43.00390625 46.17553711 44.17651367 C43.80502593 45.60820288 42.62823031 47.07175579 41.15234375 49.3984375 C40.24725618 54.33972641 40.62603856 58.36462373 42.90234375 62.8359375 C44.86989626 65.07676119 46.65249702 66.79139318 49.15234375 68.3984375 C48.58697381 71.67758318 47.78204255 73.33224558 45.15234375 75.3984375 C41.08405766 77.54558849 37.71323407 77.86225685 33.15234375 77.3984375 C28.82904391 75.97352969 25.83868106 74.15702084 22.77734375 70.7734375 C20.68134284 66.42020484 19.8663945 62.15251222 19.15234375 57.3984375 C13.7569675 64.03263126 8.5381267 70.78957278 3.35693359 77.59130859 C-0.69742375 82.90866951 -4.79416315 88.19119323 -8.91015625 93.4609375 C-13.78299728 99.70439068 -18.57165192 106.00298071 -23.30444336 112.35302734 C-28.84541114 119.76853769 -34.55455974 127.05199397 -40.25048828 134.34863281 C-48.52745341 144.97128632 -56.67211268 155.69769654 -64.84765625 166.3984375 C-70.83474126 165.54204295 -74.58022295 160.21937756 -78.66015625 156.1484375 C-80.0049707 154.85873047 -80.0049707 154.85873047 -81.37695312 153.54296875 C-82.21935547 152.70636719 -83.06175781 151.86976563 -83.9296875 151.0078125 C-84.70546143 150.24436523 -85.48123535 149.48091797 -86.28051758 148.69433594 C-87.84765625 146.3984375 -87.84765625 146.3984375 -87.72265625 143.79711914 C-86.4763204 140.3804758 -84.33377025 137.844826 -82.03515625 135.0859375 C-81.02559075 133.83996001 -80.01784388 132.59250724 -79.01171875 131.34375 C-78.22716309 130.37356934 -78.22716309 130.37356934 -77.42675781 129.38378906 C-74.84253895 126.13473714 -72.38075686 122.7966752 -69.91015625 119.4609375 C-65.98855402 114.18920268 -61.97741149 109.00864791 -57.84765625 103.8984375 C-53.25922317 98.21893893 -48.83736381 92.43661782 -44.47949219 86.57885742 C-40.74804679 81.57292254 -36.94193722 76.63064391 -33.09765625 71.7109375 C-27.80279006 64.93223076 -22.55846539 58.11699093 -17.34765625 51.2734375 C-16.68926758 50.40887939 -16.03087891 49.54432129 -15.35253906 48.65356445 C-11.49695541 43.58387583 -7.66152748 38.49957905 -3.84765625 33.3984375 C-4.93433594 33.25148438 -4.93433594 33.25148438 -6.04296875 33.1015625 C-11.84746929 32.20379975 -16.29877153 31.37871163 -20.84765625 27.3984375 C-24.73736874 21.9659304 -24.7482772 16.87433097 -23.84765625 10.3984375 C-22.14754481 6.08393247 -20.03091483 4.04259792 -15.97705078 1.83569336 C-10.80689863 -0.31721983 -5.51855614 -0.03095885 0 0 Z " fill="#111010" transform="translate(302.84765625,47.6015625)"/>
<path d="M0 0 C3.375 1.75 3.375 1.75 6 4 C6.845625 4.61875 7.69125 5.2375 8.5625 5.875 C11.39724053 8.34631226 13.62346534 11.08874504 16 14 C18.3435466 16.45786595 20.56956097 18.68589584 23.3125 20.6875 C23.869375 21.120625 24.42625 21.55375 25 22 C25 22.66 25 23.32 25 24 C25.66 24 26.32 24 27 24 C29.625 26.375 29.625 26.375 32 29 C32 29.66 32 30.32 32 31 C32.66 31 33.32 31 34 31 C34 31.66 34 32.32 34 33 C34.66 33 35.32 33 36 33 C38.625 35.375 38.625 35.375 41 38 C41 38.66 41 39.32 41 40 C41.66 40 42.32 40 43 40 C44.75 41.6875 44.75 41.6875 46 44 C44.76424034 48.44873476 42.08475274 51.76303771 39.25 55.3125 C38.35119513 56.45804519 37.45275704 57.60387825 36.5546875 58.75 C36.11866211 59.30300781 35.68263672 59.85601562 35.23339844 60.42578125 C32.7660617 63.57490779 30.39012956 66.79219454 28 70 C23.70932454 68.34763349 20.8570447 65.1094793 17.703125 61.8984375 C17.10949158 61.30197418 16.51585815 60.70551086 15.90423584 60.0909729 C14.01473373 58.1903019 12.13231608 56.28278526 10.25 54.375 C8.96790935 53.08287532 7.68536239 51.79120324 6.40234375 50.5 C3.26291568 47.33855521 0.12982199 44.1709539 -3 41 C-6.31292659 44.22729992 -8.9963562 47.6456238 -11.625 51.4375 C-15.28617163 56.64174859 -19.05850127 61.72892953 -22.96728516 66.75170898 C-26.72944254 71.60626929 -30.3683796 76.54730271 -34 81.5 C-38.82175189 88.0724646 -43.7111866 94.57959545 -48.703125 101.0234375 C-51.01432008 104.01855766 -53.29386248 107.03504234 -55.5625 110.0625 C-56.29210937 111.03445312 -57.02171875 112.00640625 -57.7734375 113.0078125 C-59.31344005 115.07735978 -60.8391661 117.1528075 -62.3515625 119.2421875 C-71.57448815 131.85816272 -71.57448815 131.85816272 -78 134 C-83.20501021 134.43375085 -86.84087504 134.3542236 -91.390625 131.390625 C-95.64107702 127.71790432 -97.67597025 123.64715125 -98.75 118.1875 C-98.06940573 108.98156702 -89.27904512 100.63283348 -83.84765625 93.6875 C-80.60490265 89.52069297 -77.49308303 85.26043328 -74.375 81 C-68.61352807 73.14186259 -62.7423741 65.37345119 -56.82617188 57.63134766 C-48.98368799 47.36803884 -41.22712046 37.04579611 -33.58837891 26.62988281 C-21.56825607 10.25186683 -21.56825607 10.25186683 -17 5 C-16.29423828 4.15695313 -16.29423828 4.15695313 -15.57421875 3.296875 C-11.20746642 -1.18058373 -5.79440902 -0.94267251 0 0 Z " fill="#101010" transform="translate(133,138)"/>
<path d="M0 0 C4.640625 -0.04125 9.28125 -0.0825 14.0625 -0.125 C15.51277588 -0.14320801 16.96305176 -0.16141602 18.45727539 -0.18017578 C20.19738892 -0.18766846 20.19738892 -0.18766846 21.97265625 -0.1953125 C23.15093994 -0.20578613 24.32922363 -0.21625977 25.54321289 -0.22705078 C30.65985448 0.10902357 34.72488792 1.14992528 39 4 C39 4.66 39 5.32 39 6 C39.66 6 40.32 6 41 6 C46.39265337 12.26243617 48.71700536 21.67290093 48.2734375 29.87890625 C47.16242506 38.49718843 45.30951486 44.61861391 39.42578125 51.16015625 C31.62934517 57.07339521 23.37957032 56.3652546 14 56.1875 C9.38 56.125625 4.76 56.06375 0 56 C0 37.52 0 19.04 0 0 Z M12 10 C12.33 21.55 12.66 33.1 13 45 C27.11501535 46.56173762 27.11501535 46.56173762 33 41 C36.146706 33.95737228 36.52537361 24.11960566 33.8125 16.875 C30.93234898 12.30648459 28.14061547 11.28515387 23 10 C19.37 10 15.74 10 12 10 Z " fill="#101010" transform="translate(393,303)"/>
<path d="M0 0 C4.42858903 3.97437477 4.9865445 8.3415401 6 14 C1.71 14 -2.58 14 -7 14 C-7.33 13.030625 -7.66 12.06125 -8 11.0625 C-9.77079721 7.58701531 -9.77079721 7.58701531 -13.875 7.0625 C-17.05612966 6.88642271 -19.91553413 7.13249397 -23 8 C-23.77242269 9.83700789 -23.77242269 9.83700789 -24 12 C-21.06437502 15.67528735 -17.12083764 16.30556512 -12.75 17.4375 C-6.20543976 19.13360331 0.10212639 20.90893482 4.875 26 C7.35354535 30.40630285 7.50402438 35.01575889 7 40 C5.2607639 45.70082944 2.97514813 48.71452482 -2 52 C-10.41424374 54.94498531 -19.19015005 55.02115416 -27.66796875 52.1640625 C-32.67085376 49.66681002 -36.04954459 45.75333721 -37.87109375 40.4765625 C-38.36546473 38.31496802 -38.7502288 36.20206447 -39 34 C-36.11788698 33.03929566 -34.30149956 32.89418117 -31.3125 32.9375 C-30.10013672 32.95103516 -30.10013672 32.95103516 -28.86328125 32.96484375 C-28.24839844 32.97644531 -27.63351562 32.98804688 -27 33 C-24 38.75 -24 38.75 -24 41 C-17.95340565 42.78244278 -13.91034671 43.41238641 -8 41 C-5.71271266 39.16116119 -5.71271266 39.16116119 -5.875 36.375 C-5.91625 35.59125 -5.9575 34.8075 -6 34 C-11.36921778 31.11077153 -16.68033293 29.65004725 -22.5625 28.16015625 C-28.25903208 26.23757667 -33.17689583 23.09927708 -36.25 17.875 C-37.52109963 13.00245143 -37.38175265 8.411112 -34.8359375 3.96875 C-26.55886838 -6.47717681 -10.84802993 -7.27991412 0 0 Z " fill="#101010" transform="translate(378,306)"/>
<path d="M0 0 C4.29 0 8.58 0 13 0 C13.01981934 1.22630127 13.03963867 2.45260254 13.06005859 3.71606445 C13.13607619 8.26168508 13.22479947 12.80698399 13.31738281 17.35229492 C13.35568847 19.32032931 13.39053855 21.2884341 13.421875 23.2565918 C13.46749111 26.08407772 13.52549098 28.91107834 13.5859375 31.73828125 C13.59748871 32.61962234 13.60903992 33.50096344 13.62094116 34.40901184 C13.64081085 35.22963608 13.66068054 36.05026031 13.68115234 36.89575195 C13.69447601 37.61745071 13.70779968 38.33914948 13.7215271 39.0827179 C13.90726155 41.32601629 13.90726155 41.32601629 16 44 C18.78601223 44.92867074 20.61066089 45.16342217 23.5 45.1875 C24.66015625 45.20876953 24.66015625 45.20876953 25.84375 45.23046875 C28.29680056 45.13661528 28.29680056 45.13661528 31 43 C31.88565586 40.34303242 32.1450262 38.71809917 32.20532227 35.98754883 C32.22526749 35.18694534 32.24521271 34.38634186 32.26576233 33.56147766 C32.28247482 32.70201035 32.29918732 31.84254303 32.31640625 30.95703125 C32.33718735 30.0734343 32.35796844 29.18983734 32.37937927 28.27946472 C32.44475754 25.45722215 32.50370528 22.63488665 32.5625 19.8125 C32.60569637 17.89907894 32.64931102 15.98566727 32.69335938 14.07226562 C32.80042695 9.38160563 32.90172752 4.69085217 33 0 C36.96 0 40.92 0 45 0 C45.12412058 6.11971742 45.21458556 12.23869311 45.2746582 18.359375 C45.29971505 20.43893202 45.33377021 22.51840174 45.37719727 24.59765625 C45.43823845 27.59657394 45.46629842 30.59432178 45.48828125 33.59375 C45.51408768 34.51490601 45.5398941 35.43606201 45.56648254 36.38513184 C45.5692331 42.79665243 44.15386613 47.05784996 40 52 C33.14680095 57.68669708 25.54454863 57.4981127 17 57 C11.57548204 55.77180725 7.25610292 53.17552782 3.25 49.3125 C-0.14012723 43.04076462 -0.28706887 35.78418131 -0.1953125 28.80859375 C-0.1924826 27.97787857 -0.18965271 27.14716339 -0.18673706 26.29127502 C-0.17566291 23.67319495 -0.1505836 21.05547429 -0.125 18.4375 C-0.11495365 16.64779145 -0.10583072 14.85807746 -0.09765625 13.06835938 C-0.07576565 8.71210396 -0.04132633 4.35611262 0 0 Z " fill="#C8992D" transform="translate(188,303)"/>
<path d="M0 0 C4.29 0 8.58 0 13 0 C13.01981934 1.19077148 13.03963867 2.38154297 13.06005859 3.60839844 C13.13616995 8.02918532 13.22487894 12.44964543 13.31738281 16.87011719 C13.35564968 18.78281195 13.39050658 20.69557811 13.421875 22.60839844 C13.46757527 25.35898342 13.52556145 28.10907783 13.5859375 30.859375 C13.59748871 31.71368103 13.60903992 32.56798706 13.62094116 33.44818115 C13.64081085 34.24870911 13.66068054 35.04923706 13.68115234 35.87402344 C13.69447601 36.57573669 13.70779968 37.27744995 13.7215271 38.00042725 C14.05387694 40.38686299 14.69152038 41.97758347 16 44 C18.78601223 44.92867074 20.61066089 45.16342217 23.5 45.1875 C24.66015625 45.20876953 24.66015625 45.20876953 25.84375 45.23046875 C28.29680056 45.13661528 28.29680056 45.13661528 31 43 C31.88565586 40.34303242 32.1450262 38.71809917 32.20532227 35.98754883 C32.22526749 35.18694534 32.24521271 34.38634186 32.26576233 33.56147766 C32.28247482 32.70201035 32.29918732 31.84254303 32.31640625 30.95703125 C32.33718735 30.0734343 32.35796844 29.18983734 32.37937927 28.27946472 C32.44475754 25.45722215 32.50370528 22.63488665 32.5625 19.8125 C32.60569637 17.89907894 32.64931102 15.98566727 32.69335938 14.07226562 C32.80042695 9.38160563 32.90172752 4.69085217 33 0 C36.96 0 40.92 0 45 0 C45.07431567 6.15638608 45.12868084 12.31250935 45.16479492 18.46923828 C45.17985469 20.56238353 45.20030671 22.65549736 45.22631836 24.74853516 C45.26282501 27.76212328 45.27975473 30.77529312 45.29296875 33.7890625 C45.30845261 34.72054108 45.32393646 35.65201965 45.33988953 36.61172485 C45.34164929 43.44954883 44.23531635 47.71269955 39.3125 52.75 C32.87852239 57.65433098 24.74606644 57.57113854 17 57 C11.50257617 55.75530026 6.87014003 53.27088432 3.25 48.875 C-1.08146546 38.91262944 -0.23545709 28.00180554 -0.125 17.375 C-0.11494957 15.68620323 -0.10582737 13.99740066 -0.09765625 12.30859375 C-0.07580739 8.20558406 -0.04139154 4.10285718 0 0 Z " fill="#101010" transform="translate(286,303)"/>
<path d="M0 0 C5.84501653 3.25865166 10.15777827 7.75177308 14.875 12.4375 C15.76703125 13.29666016 16.6590625 14.15582031 17.578125 15.04101562 C18.41601562 15.87181641 19.25390625 16.70261719 20.1171875 17.55859375 C20.88659668 18.31454834 21.65600586 19.07050293 22.44873047 19.84936523 C24 22 24 22 23.89111328 24.13696289 C22.38273482 27.29050701 20.15400942 28.77172627 17 30 C12.16381165 30.94929818 7.94614691 31.048637 3.53515625 28.671875 C1.20438954 26.90288283 -0.89246831 25.02859792 -3 23 C-3.70898438 22.37867188 -4.41796875 21.75734375 -5.1484375 21.1171875 C-8.8287037 17.75694444 -8.8287037 17.75694444 -10 16 C-9.92050785 11.89290573 -6.86085909 8.85249341 -4.4375 5.75 C-4.01275391 5.19570312 -3.58800781 4.64140625 -3.15039062 4.0703125 C-2.10601659 2.70910589 -1.05377536 1.35394167 0 0 Z " fill="#121111" transform="translate(193,216)"/>
<path d="M0 0 C1.98 0 3.96 0 6 0 C6 17.16 6 34.32 6 52 C4.02 52 2.04 52 0 52 C0 34.84 0 17.68 0 0 Z " fill="#E5E7EB" transform="translate(256,307)"/>
</svg>
