<?xml version="1.0" encoding="UTF-8"?>
<svg version="1.1" xmlns="http://www.w3.org/2000/svg" width="800" height="300" viewBox="0 0 1472 1068" preserveAspectRatio="xMidYMid meet">
<path d="M0 0 C485.76 0 971.52 0 1472 0 C1472 352.44 1472 704.88 1472 1068 C986.24 1068 500.48 1068 0 1068 C0 715.56 0 363.12 0 0 Z " fill="#FDFDFD" transform="translate(0,0)"/>
<path d="M0 0 C1.66421278 1.12524911 1.66421278 1.12524911 3 3 C3.37401349 5.78371711 3.37401349 5.78371711 3.37259549 9.2460143 C3.38270831 11.22564235 3.38270831 11.22564235 3.39302543 13.24526289 C3.38532738 14.72172831 3.37735659 16.19819232 3.36914349 17.67465496 C3.37136087 19.24032581 3.374895 20.80599525 3.37963298 22.3716605 C3.3888835 26.70488611 3.37927908 31.03790223 3.36679858 35.37111232 C3.35653316 40.07354247 3.36360124 44.77595047 3.36853105 49.47838479 C3.3747659 57.73011188 3.36979781 65.98177422 3.35761642 74.2334938 C3.33955316 86.50359544 3.33860511 98.77365603 3.34124239 111.04376854 C3.34518949 131.6814099 3.33513941 152.31902251 3.31719017 172.9566555 C3.29945634 193.39888844 3.28789582 213.84110941 3.28463173 234.28334999 C3.28442551 235.55303742 3.28421929 236.82272485 3.28400682 238.13088766 C3.28299186 244.57864192 3.2820877 251.02639618 3.2812262 257.47415046 C3.2749202 303.17735667 3.25469718 348.88054359 3.22631836 394.58374023 C3.21944347 405.66542556 3.21261742 416.74711091 3.20599365 427.82879639 C3.2055828 428.51606968 3.20517196 429.20334298 3.20474866 429.91144274 C3.18572165 461.85216154 3.17454134 493.79288168 3.16538927 525.73360466 C3.16479507 527.80684123 3.1641975 529.8800778 3.16359923 531.95331437 C3.15963994 545.69258981 3.15581598 559.43186528 3.15208265 573.17114078 C3.14447579 601.16115728 3.13600967 629.15117349 3.12702942 657.14118958 C3.12661755 658.42820556 3.12620568 659.71522154 3.12578133 661.04123801 C3.09816609 747.02749852 3.05062896 833.01375034 3 919 C4.12620189 918.99953206 5.25240378 918.99906412 6.412733 918.99858199 C44.97144416 918.98258355 83.53015558 918.96725175 122.08886719 918.95239258 C122.8656221 918.95209319 123.64237701 918.95179379 124.44266994 918.95148533 C207.65263549 918.91943125 290.86260113 918.89175988 374.0725708 918.87297058 C375.92033555 918.87255223 377.7681003 918.87213387 379.61586505 918.87171552 C418.39868549 918.86294796 457.18150604 918.85479776 495.96432675 918.84736097 C515.44545857 918.84362471 534.92659036 918.83976978 554.40772213 918.83580268 C557.34642568 918.83520493 560.28512922 918.83461057 563.22383276 918.83401636 C608.48984051 918.82483356 653.75584583 918.81310175 699.02185059 918.79400635 C700.48236955 918.7933903 700.48236955 918.7933903 701.97239395 918.79276181 C717.67155415 918.78612448 733.37071425 918.77927374 749.06987434 918.77239468 C794.27380211 918.75259047 839.47772802 918.73435746 884.6816597 918.72658062 C886.07526131 918.72633971 886.07526131 918.72633971 887.49701649 918.72609394 C907.88953326 918.72259711 928.28205005 918.71991233 948.67456703 918.71799705 C956.87912675 918.71721216 965.08368645 918.7163103 973.28824615 918.71536827 C974.18621413 918.71526799 975.0841821 918.71516771 976.00936122 918.71506439 C1004.96906508 918.71177205 1033.92875514 918.69894867 1062.88845343 918.68115337 C1092.04720358 918.66327922 1121.20594034 918.6546967 1150.36469612 918.65912804 C1154.38929595 918.65973732 1158.41389578 918.66023945 1162.43849564 918.66067696 C1163.22746846 918.6607666 1164.01644129 918.66085624 1164.82932239 918.6609486 C1177.34890612 918.66209291 1189.86846161 918.65311657 1202.38803764 918.63997041 C1214.68285261 918.62726649 1226.97763077 918.62515687 1239.27244918 918.63450456 C1245.85602894 918.63921411 1252.43953281 918.63872967 1259.02310452 918.62535045 C1265.00162705 918.61329233 1270.97997979 918.61481019 1276.95849943 918.62758007 C1279.11820125 918.62973877 1281.27791521 918.62676953 1283.43760148 918.61829427 C1286.35207657 918.60757401 1289.26593708 918.61507684 1292.18039203 918.62740451 C1293.02606728 918.61987788 1293.87174253 918.61235125 1294.7430443 918.60459654 C1298.05654629 918.63483816 1300.54975434 918.76515759 1303.51606925 920.31234972 C1305 922 1305 922 1305.5625 925.375 C1304.84347109 930.00874186 1303.7032811 931.17070205 1300 934 C1296.99796133 934.7190085 1294.07978527 934.67079629 1291.00423861 934.62789649 C1290.09085282 934.6350323 1289.17746703 934.64216812 1288.23640289 934.64952017 C1285.15279528 934.6674424 1282.0704195 934.64952946 1278.98682404 934.63199902 C1276.75350904 934.63751465 1274.52019855 934.64522103 1272.28689784 934.65492871 C1266.10918119 934.67534483 1259.93184778 934.66436067 1253.75413211 934.64853913 C1247.73957925 934.63801998 1241.72510612 934.65099726 1235.71056803 934.66331787 C1223.25421719 934.68798197 1210.79796528 934.68881218 1198.34160042 934.67677689 C1185.71412506 934.66465788 1173.08671817 934.6633489 1160.45924187 934.67529869 C1159.66240813 934.67604503 1158.86557439 934.67679138 1158.04459418 934.67756034 C1154.79934628 934.68063497 1151.55409846 934.68378548 1148.30885073 934.68703263 C1115.3421015 934.71998809 1082.37540582 934.72076227 1049.40864573 934.70917364 C1044.85121863 934.70758345 1040.29379151 934.70604478 1035.73636436 934.70455909 C1034.37861193 934.70411631 1034.37861193 934.70411631 1032.99343015 934.70366458 C1012.03509242 934.69706858 991.0767607 934.70173065 970.11842346 934.70801735 C968.28924577 934.70855178 966.46006807 934.70908415 964.63089037 934.70961447 C957.28058301 934.71175028 949.93027565 934.71391452 942.57996831 934.716127 C922.03153567 934.72226909 901.48310283 934.72665163 880.93466949 934.72961903 C879.53096178 934.72982181 879.53096178 934.72982181 878.09889633 934.7300287 C848.27042417 934.73420292 818.44195822 934.73048175 788.61348724 934.72152996 C787.64572001 934.72124116 786.67795277 934.72095235 785.68085926 934.7206548 C769.96395069 934.71594863 754.24704223 934.71090782 738.53013378 934.7058323 C676.19112573 934.68572582 613.85218562 934.69394772 551.51318359 934.72729492 C535.80429342 934.73568037 520.09540321 934.74399389 504.38651276 934.75184917 C502.93572409 934.75257617 502.93572409 934.75257617 501.45562657 934.75331786 C471.65886056 934.76815212 441.86210022 934.77558027 412.06533051 934.77510548 C411.13020849 934.77509109 410.19508648 934.7750767 409.23162744 934.77506188 C388.70620233 934.77466525 368.18077775 934.77239227 347.65535302 934.76841415 C340.31153141 934.76700104 332.96770978 934.76569668 325.62388814 934.76443258 C323.79685846 934.76411511 321.96982878 934.76378998 320.1427991 934.76345717 C291.00004058 934.75818557 261.85731888 934.76961856 232.71456729 934.78901156 C202.55835938 934.80891177 172.40222631 934.8064915 142.24602377 934.77857425 C139.0109353 934.77566522 135.77584676 934.77285164 132.54075813 934.77011299 C131.74678735 934.76943208 130.95281656 934.76875116 130.13478606 934.76804961 C117.53868451 934.75778799 104.94268207 934.7676832 92.34659284 934.7858602 C79.97513194 934.80328949 67.60383169 934.79944137 55.23238585 934.77261171 C48.60848934 934.75883103 41.98488146 934.75537564 35.36097819 934.777693 C29.34463567 934.79776843 23.32898613 934.79063842 17.31268851 934.76104649 C15.14050098 934.75525777 12.96825822 934.75969739 10.7961181 934.77517145 C7.86181017 934.79463391 4.92995884 934.77757439 1.99576139 934.75094432 C1.14725242 934.7654069 0.29874344 934.77986949 -0.57547793 934.79477034 C-3.70059365 934.73613221 -6.03752517 934.67517819 -8.64175988 932.84830187 C-11.9992437 929.25359118 -12.62489558 926.11394047 -12.62444448 921.34110868 C-12.63120761 920.69298067 -12.63797073 920.04485265 -12.6449388 919.3770844 C-12.66151514 917.20346341 -12.64247112 915.0316344 -12.62361908 912.85805321 C-12.62822806 911.27815306 -12.63502926 909.69825805 -12.64382517 908.11837566 C-12.66169279 903.75949522 -12.64827837 899.40117806 -12.62993505 895.0423201 C-12.61548615 890.30691559 -12.62996794 885.57158695 -12.64082003 880.8361851 C-12.65582577 872.53109743 -12.65216763 864.22617877 -12.63640213 855.92109489 C-12.61302322 843.57150214 -12.61817076 831.22203722 -12.62911103 818.87243311 C-12.64772052 796.81961528 -12.63796623 774.76687808 -12.61663339 752.71406682 C-12.59809741 733.41687125 -12.58965296 714.1197028 -12.59120178 694.82249832 C-12.59129346 693.54389318 -12.59138513 692.26528804 -12.59147959 690.94793729 C-12.59187273 685.75805777 -12.59232234 680.56817826 -12.59285098 675.37829876 C-12.59647638 639.14608917 -12.5913671 602.91389292 -12.56609344 566.68169212 C-12.56561732 565.99861432 -12.56514119 565.31553651 -12.56465063 564.61175938 C-12.55688794 553.51853774 -12.548678 542.42531642 -12.54044303 531.33209512 C-12.50780494 487.32815719 -12.49474638 443.32426209 -12.50097656 399.3203125 C-12.50117051 397.92931028 -12.501364 396.53830806 -12.50155704 395.14730584 C-12.50184641 393.06281278 -12.50213581 390.97831973 -12.50242616 388.89382667 C-12.50348504 381.27935804 -12.50449805 373.6648894 -12.50545502 366.05042076 C-12.50554241 365.36760711 -12.5056298 364.68479345 -12.50571983 363.98128848 C-12.51038528 327.13743904 -12.5006104 290.29359625 -12.48561716 253.44974959 C-12.48509702 252.16420877 -12.48457688 250.87866796 -12.48404097 249.55417136 C-12.48352163 248.27093609 -12.48300229 246.98770081 -12.4824672 245.66557962 C-12.48194946 244.38464787 -12.48143172 243.10371611 -12.48089829 241.78396824 C-12.4798502 239.20421918 -12.47878999 236.62447011 -12.47771757 234.04472106 C-12.47032695 216.0345947 -12.46825059 198.02447463 -12.46971158 180.01434694 C-12.4715545 156.8102838 -12.4635392 133.60625945 -12.43807012 110.40220903 C-12.42487178 98.12097329 -12.41991355 85.8397995 -12.42670866 73.55855817 C-12.43040528 65.3673272 -12.42327361 57.17615302 -12.40711627 48.98493723 C-12.39819524 44.30983762 -12.39410925 39.63486596 -12.40304345 34.95976345 C-12.4110557 30.71300836 -12.40544882 26.4665051 -12.38862656 22.21977776 C-12.3849968 20.68700202 -12.38646967 19.15420426 -12.39346571 17.62144019 C-12.40219708 15.55004908 -12.39264969 13.4795341 -12.37834883 11.40819299 C-12.37769807 10.25839842 -12.37704731 9.10860385 -12.37637684 7.92396703 C-11.95722351 4.66768133 -11.30595751 3.30337242 -9 1 C-5.72429875 -0.09190042 -3.43202271 -0.28600189 0 0 Z " fill="#0A0A0A" transform="translate(100,61)"/>
<path d="M0 0 C2.33936796 1.2428826 4.30753664 2.46562869 6.4375 4 C7.06946289 4.43787842 7.70142578 4.87575684 8.35253906 5.3269043 C9.77886645 6.31774662 11.20064098 7.3151637 12.61865234 8.31787109 C15.21134753 10.14929101 17.81728141 11.96069751 20.42578125 13.76953125 C24.35460602 16.49512429 28.27849437 19.22761279 32.19921875 21.96484375 C37.46434294 25.63516313 42.75778571 29.26223202 48.0625 32.875 C53.9789084 36.9069725 59.84103306 41.00061466 65.64794922 45.18847656 C70.60513404 48.75006079 75.64176385 52.19039994 80.6875 55.625 C86.67919473 59.70430131 92.60565296 63.84519154 98.4453125 68.140625 C102.26714957 70.92226788 106.16263028 73.5954453 110.0546875 76.27734375 C115.00596741 79.68964202 119.93960633 83.12728481 124.875 86.5625 C126.87889771 87.95704353 128.88280409 89.35157459 130.88671875 90.74609375 C131.89782715 91.44976074 132.90893555 92.15342773 133.95068359 92.87841797 C136.93141959 94.95228472 139.91284873 97.02515065 142.89453125 99.09765625 C155.28011591 107.70742717 167.65408591 116.33341793 180 125 C180.73412109 125.5151416 181.46824219 126.0302832 182.22460938 126.56103516 C190.95099878 132.68878606 199.62618653 138.88239167 208.26123047 145.13818359 C214.10536787 149.36717711 219.98768824 153.53943779 225.88671875 157.69140625 C230.8406886 161.17855821 235.77571539 164.69099021 240.70117188 168.21826172 C245.20217193 171.43818827 249.72443223 174.62722835 254.25 177.8125 C260.95773872 182.53591674 267.61627389 187.32397717 274.25976562 192.13720703 C280.10531267 196.36700438 285.98941607 200.53950979 291.88891602 204.69360352 C298.61575505 209.43031829 305.31742846 214.20104777 312 219 C312.67611328 219.48549316 313.35222656 219.97098633 314.04882812 220.47119141 C322.5946502 226.6132589 331.10263105 232.80254192 339.5625 239.0625 C346.20308916 243.97367051 352.90154275 248.78979762 359.66088867 253.53588867 C372.82592233 262.78430569 385.79409385 272.3015534 398.73828125 281.85546875 C406.57617832 287.64037992 414.46792539 293.33572909 422.4375 298.9375 C427.32252993 302.37242828 432.1721707 305.83702897 436.9375 309.4375 C438.37860255 310.52183447 439.81972572 311.60614167 441.26123047 312.68994141 C442.574538 313.67943989 443.88568966 314.67180063 445.19580078 315.66552734 C447.62116133 317.49823016 450.05942683 319.31262098 452.5 321.125 C453.27851318 321.71853271 454.05702637 322.31206543 454.85913086 322.92358398 C455.59655518 323.46700439 456.33397949 324.0104248 457.09375 324.5703125 C457.75052734 325.06289551 458.40730469 325.55547852 459.08398438 326.06298828 C460.93495204 327.17555243 460.93495204 327.17555243 462.91967773 326.8137207 C465.44054527 325.82768016 467.7942374 324.66963504 470.19140625 323.41015625 C471.2086377 322.8783374 472.22586914 322.34651855 473.27392578 321.79858398 C474.35915527 321.22567627 475.44438477 320.65276855 476.5625 320.0625 C477.68640137 319.473479 478.81030273 318.88445801 479.96826172 318.27758789 C483.31444086 316.52266371 486.657583 314.76207678 490 313 C491.68870522 312.11179498 493.37749705 311.22375459 495.06640625 310.3359375 C497.34309922 309.13852643 499.61942546 307.94043987 501.89477539 306.74047852 C509.07621206 302.95351483 516.27546725 299.20099959 523.47558594 295.44970703 C528.55599239 292.80144597 533.63058393 290.14295562 538.6953125 287.46484375 C548.98896638 282.02285827 559.34063673 276.69583238 569.69525146 271.37112427 C578.53953855 266.82238297 587.37233471 262.25524536 596.1640625 257.60546875 C602.59354314 254.20637056 609.04541125 250.85114198 615.5 247.5 C623.05013131 243.57848537 630.59527367 239.6480663 638.125 235.6875 C639.26714966 235.08929443 639.26714966 235.08929443 640.43237305 234.47900391 C644.07814424 232.56426979 647.70099281 230.61951448 651.29296875 228.60546875 C652.31269775 228.04049683 652.31269775 228.04049683 653.35302734 227.46411133 C654.61069717 226.76507506 655.86291395 226.05608324 657.10791016 225.3347168 C660.91160888 223.23099822 663.67794565 222.29296208 668 223 C670.97265625 224.8359375 670.97265625 224.8359375 674.0625 227.375 C675.21327159 228.30241856 676.36432083 229.22949268 677.515625 230.15625 C678.09634766 230.63191406 678.67707031 231.10757813 679.27539062 231.59765625 C681.91455033 233.74365474 684.61229506 235.80618627 687.3125 237.875 C687.84625244 238.28588867 688.38000488 238.69677734 688.92993164 239.12011719 C693.75274878 242.82898971 698.62257439 246.47388407 703.49536133 250.11669922 C709.18865663 254.37843367 714.84708307 258.68489754 720.5 263 C730.63710421 270.73594672 740.82692159 278.39873133 751.05078125 286.01953125 C758.10517656 291.28479891 765.09804958 296.61132623 772.00146484 302.07324219 C775.54621349 304.87316022 779.12634604 307.61466972 782.75 310.3125 C787.88863148 314.1389943 792.94977025 318.05769414 798 322 C803.91698804 326.61724276 809.86454461 331.17953602 815.8828125 335.6640625 C825.86817436 343.1468274 835.73322007 350.79152734 845.62109375 358.40234375 C858.7284508 368.48694193 858.7284508 368.48694193 871.9375 378.4375 C882.42740186 386.27974487 892.7069934 394.40209156 903 402.5 C914.66303641 411.67376654 926.35035006 420.80514118 938.24609375 429.67602539 C943.66602872 433.72683415 948.99247939 437.88657936 954.30078125 442.08203125 C965.78604645 451.15793189 977.38636836 460.08928519 989 469 C1002.0137248 478.98495509 1015.02612617 488.9745203 1027.8125 499.25 C1034.46837635 504.59759814 1041.21039741 509.82341753 1048 515 C1057.82451401 522.49176369 1067.61953788 530.01331484 1077.31591797 537.67041016 C1090.81016528 548.32417514 1104.35517348 558.91465028 1118 569.375 C1122.4949539 572.82618183 1126.94014501 576.33058112 1131.35546875 579.8828125 C1136.26994518 583.81729732 1141.23180552 587.69181433 1146.18554688 591.57666016 C1149.7093185 594.34086744 1153.23011404 597.10886421 1156.7512207 599.87646484 C1159.65419938 602.15792545 1162.55827252 604.43796129 1165.46484375 606.71484375 C1172.13029671 611.93911769 1178.76295686 617.20170771 1185.37011719 622.49951172 C1189.7923482 626.04215104 1194.23234885 629.56135274 1198.6875 633.0625 C1199.26371094 633.51560547 1199.83992188 633.96871094 1200.43359375 634.43554688 C1202.70577031 636.21812349 1204.95295229 637.96889408 1207.36328125 639.5625 C1209 641 1209 641 1209.5 644.9375 C1209.3336013 647.85216106 1209.02907813 648.95347498 1207.4375 651.5 C1203.96792543 653.63512281 1202.04970147 653.50263701 1198 653 C1194.92433905 651.27896365 1192.31632225 649.07634219 1189.625 646.8125 C1188.02682758 645.51725884 1186.42785014 644.22301043 1184.828125 642.9296875 C1184.02310547 642.2706543 1183.21808594 641.61162109 1182.38867188 640.93261719 C1178.78212662 638.01464782 1175.07878969 635.23015571 1171.375 632.4375 C1165.05684169 627.6356412 1158.87360508 622.68826484 1152.73339844 617.66162109 C1147.17394866 613.11760221 1141.50816353 608.7345971 1135.80029297 604.37792969 C1126.41075666 597.19125449 1117.08480224 589.93053916 1107.9375 582.4375 C1101.79205043 577.4045426 1095.53708176 572.53720481 1089.21240234 567.73193359 C1084.79927358 564.37884584 1080.41390833 560.99529871 1076.0625 557.5625 C1065.59473533 549.30711236 1055.07321614 541.11991 1044.5 533 C1033.84419645 524.81666537 1023.24285951 516.56245746 1012.6875 508.25 C1006.16489445 503.11431029 999.58950729 498.0494155 993 493 C985.82829867 487.50446015 978.68283407 481.97919498 971.58447266 476.38916016 C959.45504535 466.84201971 947.24651483 457.39630294 935 448 C926.95914964 441.83054959 918.94653384 435.62681348 910.95239258 429.39697266 C905.6577645 425.27600857 900.33644114 421.19162532 895 417.125 C889.67348853 413.06477527 884.39364603 408.95842837 879.1796875 404.75390625 C872.53337367 399.4058867 865.72283616 394.28277326 858.890625 389.17578125 C856.49064036 387.36930633 854.11342347 385.5412539 851.75 383.6875 C847.62735674 380.46108354 843.44247942 377.32214678 839.25 374.1875 C833.26749544 369.71292769 827.32381549 365.19422187 821.41015625 360.62890625 C817.45045443 357.57239748 813.4749889 354.53658459 809.5 351.5 C804.47004098 347.65749968 799.44788214 343.80549018 794.4375 339.9375 C789.81823549 336.38026663 785.16900953 332.86661216 780.5 329.375 C768.32047773 320.26651064 756.22780362 311.0416487 744.1875 301.75 C738.80800685 297.60229247 733.37748725 293.52611733 727.93798828 289.45776367 C722.71821024 285.54950338 717.54083894 281.58981595 712.37890625 277.60546875 C708.59432686 274.68433414 704.79782535 271.77888247 701 268.875 C699.95247559 268.07364624 699.95247559 268.07364624 698.88378906 267.25610352 C694.74689767 264.09333261 690.60424679 260.938285 686.45703125 257.7890625 C685.51923828 257.07637207 684.58144531 256.36368164 683.61523438 255.62939453 C681.78801692 254.24115493 679.95993303 252.85405478 678.13085938 251.46826172 C673.66503957 248.07440977 669.27174813 244.63553032 665 241 C661.13504201 242.47066515 657.50530786 244.22027176 653.8359375 246.125 C653.25150375 246.4276326 652.66707001 246.7302652 652.06492615 247.04206848 C650.16704778 248.02568374 648.27097414 249.0127199 646.375 250 C645.04653361 250.68982345 643.71800115 251.37951966 642.3894043 252.0690918 C630.42093177 258.28520709 618.47999792 264.55181955 606.57357788 270.88600159 C589.15089573 280.15318974 571.67593095 289.30519994 554.10009766 298.27905273 C546.60567555 302.10760974 539.13251572 305.97102605 531.69140625 309.90234375 C520.76647959 315.67273432 509.76224691 321.28522298 498.75585938 326.89819336 C497.01664845 327.78549617 495.27773483 328.67338197 493.53912354 329.56185913 C491.83373263 330.43304536 490.12748649 331.30255966 488.42034912 332.1703186 C484.30593113 334.26979456 480.22542082 336.41049729 476.18847656 338.65576172 C475.0428978 339.28634743 475.0428978 339.28634743 473.87417603 339.92967224 C472.4499549 340.71757502 471.0321524 341.51725098 469.62265015 342.33119202 C465.270954 344.7288114 462.08935509 345.55725414 457 345 C454.0703125 343.234375 454.0703125 343.234375 451.125 340.75 C449.98713281 339.8195339 448.84636223 338.89261013 447.703125 337.96875 C447.10306641 337.48019531 446.50300781 336.99164062 445.88476562 336.48828125 C442.6489052 333.93312515 439.26046908 331.60107457 435.875 329.25 C429.70667191 324.93824717 423.61152792 320.54007887 417.5625 316.0625 C409.16477358 309.84761924 400.71277938 303.71242753 392.23388672 297.60888672 C388.48640211 294.90987868 384.74346279 292.20458184 381 289.5 C379.50522119 288.42055511 378.01042952 287.34112804 376.515625 286.26171875 C373.46281883 284.05698797 370.41082821 281.85113417 367.359375 279.64453125 C360.58459178 274.74654609 353.80735468 269.85265022 347 265 C336.02989224 257.17814209 325.10357864 249.29533414 314.25 241.3125 C307.7825634 236.55647822 301.26303488 231.87738148 294.72070312 227.22509766 C293.01506244 226.01072408 291.31179224 224.7931063 289.609375 223.57421875 C283.34055046 219.08660628 277.05420249 214.62528873 270.75 210.1875 C264.86388484 206.04324878 259.01442507 201.85201354 253.1875 197.625 C246.00151818 192.41367848 238.74722865 187.30724815 231.46386719 182.2331543 C225.91226336 178.3585303 220.41168318 174.42058329 214.9375 170.4375 C208.8005151 165.97411511 202.59108035 161.63677076 196.3125 157.375 C190.03554165 153.11396211 183.86133348 148.7510891 177.76831055 144.23168945 C170.93395688 139.1779964 163.95339007 134.33623601 156.98046875 129.4765625 C153.14561734 126.80389908 149.32497032 124.11215173 145.51196289 121.40844727 C138.15945373 116.19497572 130.74827635 111.07512927 123.30102539 105.99804688 C110.48530621 97.25054168 97.81783446 88.29015899 85.15185547 79.32788086 C79.8040111 75.55089494 74.41483535 71.83708429 69.01196289 68.1394043 C64.20595557 64.84451262 59.44035652 61.49600749 54.6875 58.125 C48.66579929 53.85547003 42.6004084 49.65624741 36.5 45.5 C29.02349519 40.40427741 21.60519363 35.234022 14.23046875 29.9921875 C11.27012231 27.88986215 8.29162082 25.81651425 5.30078125 23.7578125 C4.52879395 23.22293213 3.75680664 22.68805176 2.96142578 22.13696289 C1.48862595 21.11719844 0.01195856 20.10298805 -1.46923828 19.09545898 C-5.27815806 16.44671683 -8.46096558 13.9749922 -11 10 C-11 6.1862249 -10.84985071 3.97575452 -8.3125 1.0625 C-5.25992109 -0.34003625 -3.3520501 -0.32555882 0 0 Z " fill="#080807" transform="translate(166,250)"/>
<path d="M0 0 C329.67 0 659.34 0 999 0 C998.67 0.99 998.34 1.98 998 3 C995.36 3 992.72 3 990 3 C990 2.67 990 2.34 990 2 C984.46411467 1.97535225 978.928261 1.95716504 973.39233398 1.94506836 C971.5075627 1.94002756 969.62279535 1.93319502 967.73803711 1.92456055 C965.03498364 1.91248383 962.33198169 1.90676932 959.62890625 1.90234375 C958.35703209 1.89460182 958.35703209 1.89460182 957.0594635 1.88670349 C955.03928932 1.88650805 953.01922066 1.93793789 951 2 C950.67 2.33 950.34 2.66 950 3 C947.0169814 3.1012099 944.05761224 3.13968199 941.07421875 3.1328125 C940.17508255 3.13376923 939.27594635 3.13472595 938.3495636 3.13571167 C936.44210745 3.13639374 934.53464899 3.13453758 932.62719727 3.13037109 C929.7103958 3.12504183 926.79374964 3.1303055 923.87695312 3.13671875 C922.02604133 3.13605761 920.17512963 3.1347757 918.32421875 3.1328125 C917.01465462 3.13584885 917.01465462 3.13584885 915.67863464 3.13894653 C914.45265312 3.13421829 914.45265312 3.13421829 913.2019043 3.12939453 C912.48544235 3.12859894 911.76898041 3.12780334 911.0308075 3.12698364 C908.91178356 2.99448395 907.04822763 2.54118643 905 2 C903.41788427 1.93451508 901.83329919 1.91421619 900.25 1.9375 C899.05117187 1.95103516 899.05117187 1.95103516 897.828125 1.96484375 C896.92320312 1.98224609 896.92320312 1.98224609 896 2 C896 2.33 896 2.66 896 3 C880.49 3 864.98 3 849 3 C849 2.67 849 2.34 849 2 C672.78 2 496.56 2 315 2 C315 2.33 315 2.66 315 3 C307.41 3 299.82 3 292 3 C292 2.67 292 2.34 292 2 C273.85 2 255.7 2 237 2 C237 2.33 237 2.66 237 3 C219.51 3 202.02 3 184 3 C184 2.67 184 2.34 184 2 C182.46695473 2.00333092 182.46695473 2.00333092 180.90293884 2.00672913 C167.58113545 2.03466904 154.25932826 2.05199386 140.9375 2.0625 C139.85988026 2.06335602 138.78226051 2.06421204 137.67198563 2.06509399 C104.25736396 2.08848865 70.84954341 1.91760352 37.4375 1.5 C36.48020367 1.48804218 35.52290733 1.47608437 34.53660202 1.46376419 C23.02426131 1.31907776 11.51206871 1.16491359 0 1 C0 0.67 0 0.34 0 0 Z M80 2 C82.31 2 84.62 2 87 2 C87 2.33 87 2.66 87 3 C84.69 3 82.38 3 80 3 C80 2.67 80 2.34 80 2 Z M356 2 C358.31 2 360.62 2 363 2 C363 2.33 363 2.66 363 3 C360.69 3 358.38 3 356 3 C356 2.67 356 2.34 356 2 Z M366 2 C368 3 368 3 368 3 Z M598 2 C599.98 2 601.96 2 604 2 C604 2.33 604 2.66 604 3 C602.02 3 600.04 3 598 3 C598 2.67 598 2.34 598 2 Z M699 2 C701.97 2 704.94 2 708 2 C708 2.33 708 2.66 708 3 C705.03 3 702.06 3 699 3 C699 2.67 699 2.34 699 2 Z M726 2 C736.89 2 747.78 2 759 2 C759 2.33 759 2.66 759 3 C748.11 3 737.22 3 726 3 C726 2.67 726 2.34 726 2 Z M898 2 C899.98 2 901.96 2 904 2 C904 2.33 904 2.66 904 3 C902.02 3 900.04 3 898 3 C898 2.67 898 2.34 898 2 Z " fill="#F2F3F3" transform="translate(400,995)"/>
</svg>
