<?xml version="1.0" encoding="UTF-8"?>
<svg version="1.1" xmlns="http://www.w3.org/2000/svg" width="800" height="300" viewBox="0 0 1472 1069" preserveAspectRatio="xMidYMid meet">
<path d="M0 0 C485.76 0 971.52 0 1472 0 C1472 352.77 1472 705.54 1472 1069 C986.24 1069 500.48 1069 0 1069 C0 716.23 0 363.46 0 0 Z " fill="#FDFDFD" transform="translate(0,0)"/>
<path d="M0 0 C0.99 0.66 1.98 1.32 3 2 C3.37401349 4.67219935 3.37401349 4.67219935 3.37259549 8.15387595 C3.37642975 8.79599968 3.38026401 9.43812342 3.38421445 10.09970545 C3.39348787 12.27658807 3.38116442 14.45283197 3.36914349 16.62969398 C3.37136026 18.20272646 3.37489373 19.77575755 3.37963298 21.34878445 C3.38889323 25.70711145 3.37927113 30.06523055 3.36679858 34.42354216 C3.35654113 39.15144494 3.3635997 43.87932554 3.36853105 48.60723245 C3.37476841 56.90523403 3.36979356 65.20317126 3.35761642 73.50116539 C3.33955941 85.84009259 3.33860452 98.17897896 3.34124239 110.51791696 C3.34519027 131.2709253 3.3351365 152.02390505 3.31719017 172.77690506 C3.29945835 193.33439907 3.28789623 213.89188118 3.28463173 234.44938278 C3.28442551 235.72607069 3.28421929 237.00275859 3.28400682 238.31813401 C3.28299187 244.80139745 3.2820877 251.28466089 3.2812262 257.76792435 C3.2794169 270.95314935 3.27661854 284.13837413 3.27341938 297.32359886 C3.27325943 297.98334718 3.27309948 298.64309551 3.27293468 299.3228362 C3.26506665 331.43007232 3.24614256 363.53730067 3.22631836 395.64453125 C3.21944349 406.78900141 3.21261745 417.93347159 3.20599365 429.07794189 C3.2055828 429.76910587 3.20517196 430.46026985 3.20474866 431.17237819 C3.18572284 463.2918908 3.17454172 495.41140473 3.16538927 527.53092149 C3.16479507 529.61567701 3.1641975 531.70043252 3.16359923 533.78518804 C3.15963995 547.60076009 3.15581599 561.41633219 3.15208265 575.23190431 C3.14447573 603.37753401 3.13600961 631.52316342 3.12702942 659.66879272 C3.12661755 660.96297344 3.12620568 662.25715416 3.12578133 663.59055248 C3.09816454 750.06037479 3.05062723 836.53018847 3 923 C4.02636755 922.99953206 5.05273511 922.99906412 6.11020471 922.99858199 C41.2508784 922.98258351 76.39155237 922.96725172 111.53222656 922.95239258 C112.24012729 922.95209319 112.94802803 922.95179379 113.6773803 922.95148533 C189.51203048 922.91943096 265.34668075 922.89175966 341.18133545 922.87297058 C342.86534281 922.87255223 344.54935016 922.87213387 346.23335752 922.87171552 C381.5791447 922.86294794 416.924932 922.85479774 452.27071949 922.84736097 C470.02540993 922.84362471 487.78010034 922.83976979 505.53479072 922.83580268 C508.21306113 922.83520493 510.89133154 922.83461057 513.56960195 922.83401636 C554.82356392 922.82483367 596.07752325 922.81310207 637.33148193 922.79400635 C638.21884684 922.79359565 639.10621175 922.79318495 640.02046651 922.79276181 C654.32791299 922.78612449 668.63535938 922.77927374 682.94280575 922.77239468 C724.13995889 922.75259021 765.33711 922.73435729 806.53426743 922.72658062 C807.3810028 922.72642001 808.22773816 922.72625941 809.10013218 922.72609394 C827.68559711 922.72259709 846.27106207 922.71991232 864.85652723 922.71799705 C872.33407714 922.71721216 879.81162704 922.7163103 887.28917694 922.71536827 C888.51677409 922.71521785 888.51677409 922.71521785 889.76917119 922.71506439 C916.16177364 922.71177217 942.55436097 922.69894918 968.94695731 922.68115337 C995.52143829 922.66327839 1022.09590458 922.65469693 1048.67039173 922.65912804 C1052.33848169 922.65973732 1056.00657166 922.66023945 1059.67466164 922.66067696 C1060.39374376 922.6607666 1061.11282589 922.66085624 1061.85369839 922.6609486 C1073.26325018 922.66209281 1084.67277098 922.65311741 1096.08231433 922.63997041 C1107.28762071 922.62726504 1118.49288717 922.62540904 1129.69820088 922.63450456 C1135.69814206 922.63906028 1141.69797911 922.63873242 1147.69790938 922.62535045 C1153.14684619 922.61328896 1158.59559673 922.6148135 1164.04453038 922.62758007 C1166.01252185 922.62973809 1167.98052664 922.62677226 1169.94850103 922.61829427 C1172.60515761 922.60756729 1175.2611408 922.61508177 1177.91777539 922.62740451 C1178.68763651 922.61987788 1179.45749764 922.61235125 1180.25068788 922.60459654 C1183.41890985 922.63628564 1185.66177466 922.81601513 1188.46998279 924.34359972 C1190 926 1190 926 1190.5625 928.875 C1189.80091834 933.10600924 1188.36048562 934.35754705 1185 937 C1182.05351739 937.49067144 1179.68824465 937.67158037 1176.74688333 937.62559515 C1175.91392688 937.63248251 1175.08097043 937.63936986 1174.22277288 937.64646592 C1171.41326721 937.66353668 1168.60512722 937.64479611 1165.79564571 937.62641239 C1163.75985776 937.63132199 1161.72407411 937.63842353 1159.68830058 937.64752635 C1154.05901268 937.66626704 1148.43015484 937.65362379 1142.80087878 937.63613641 C1136.69002036 937.62260932 1130.57922551 937.63794643 1124.46837288 937.64968723 C1113.74676092 937.66624901 1103.02529306 937.66426361 1092.30368996 937.64986038 C1080.7969438 937.63448904 1069.29026988 937.62995419 1057.78351593 937.63871193 C1056.69424431 937.63953 1056.69424431 937.63953 1055.5829672 937.6403646 C1052.62545449 937.64262253 1049.66794184 937.64495908 1046.71042927 937.64739507 C1019.14869158 937.67008753 991.58700625 937.66824514 964.02526665 937.65091133 C937.4610375 937.63422412 910.89683221 937.62610783 884.33259773 937.6301403 C882.66571408 937.63038067 880.99883042 937.63061986 879.33194677 937.63085788 C872.63379405 937.63182662 865.93564135 937.63284904 859.23748865 937.63394299 C840.51235294 937.63697193 821.78721729 937.63829471 803.06208134 937.63831234 C802.209318 937.63831361 801.35655466 937.63831487 800.47795001 937.63831618 C773.29704342 937.63823604 746.11614421 937.63068048 718.93524075 937.61790562 C718.05338978 937.61749193 717.17153881 937.61707824 716.26296509 937.61665202 C701.94139097 937.60990808 687.61981704 937.60275456 673.29824313 937.59557279 C616.49121446 937.56711291 559.6842309 937.56114698 502.87719727 937.57641602 C499.28736241 937.57737544 495.69752756 937.57833246 492.10769271 937.57928873 C490.7763405 937.57964343 490.7763405 937.57964343 489.41809228 937.5800053 C479.58900011 937.58261802 469.75990791 937.58515059 459.9308157 937.5875864 C459.0494182 937.58780622 458.16802071 937.58802603 457.2599142 937.58825251 C430.1069836 937.5949729 402.9540567 937.59669612 375.80112553 937.59282589 C374.94899828 937.59270443 374.09687104 937.59258298 373.21892176 937.59245784 C354.5153623 937.58973001 335.81180328 937.5856672 317.10824436 937.58041219 C310.41631967 937.57853373 303.72439497 937.57670731 297.03247026 937.57488665 C294.53654938 937.5742024 292.0406285 937.57350085 289.54470763 937.57279913 C271.27595918 937.5677409 253.00721572 937.5654246 234.73846698 937.57023358 C233.91450244 937.57045026 233.0905379 937.57066694 232.24160473 937.57089019 C228.09274495 937.57199907 223.94388518 937.57315805 219.79502542 937.57433859 C189.83940333 937.58285707 159.88383084 937.57870965 129.92821818 937.5515715 C126.9805065 937.54895672 124.03279478 937.54640329 121.08508301 937.54389763 C119.99991932 937.5429659 119.99991932 937.5429659 118.89283314 937.54201535 C107.41410783 937.5325152 95.93542763 937.53642997 84.45670389 937.54584048 C73.1836468 937.55479647 61.91067109 937.54921122 50.63762188 937.52894809 C44.60146636 937.51850407 38.56548905 937.51453775 32.52933531 937.52792663 C27.04755868 937.5399521 21.56612469 937.53385875 16.08437818 937.51276654 C14.10453682 937.50841368 12.12466687 937.51088638 10.14484505 937.52070096 C7.47206296 937.53299074 4.80048772 937.52097552 2.1277675 937.50254732 C1.35322303 937.51199216 0.57867856 937.52143699 -0.21933696 937.53116803 C-3.55665807 937.48444055 -5.6613421 937.22258999 -8.47672009 935.37212387 C-10.47750718 932.25640313 -10.50009515 930.24046689 -10.50024599 926.5434708 C-10.50573103 925.89291374 -10.51121606 925.24235668 -10.51686731 924.57208576 C-10.53043737 922.37835448 -10.51536448 920.18574429 -10.50057125 917.99203396 C-10.50443837 916.40222677 -10.51005917 914.81242304 -10.51728085 913.22262755 C-10.53210513 908.82698916 -10.52182586 904.43170425 -10.50766886 900.03607668 C-10.49666673 895.26424517 -10.5087603 890.4924649 -10.51797634 885.72063738 C-10.53091658 877.34852971 -10.5288894 868.9765277 -10.51719666 860.60441971 C-10.49985705 848.15516978 -10.50529733 835.7060034 -10.51536357 823.25674923 C-10.53258394 801.02668534 -10.5269968 778.79667066 -10.51200638 756.56660777 C-10.49897266 737.11374764 -10.49375514 717.66090461 -10.49632454 698.20804024 C-10.49648495 696.91944806 -10.49664537 695.63085589 -10.49681065 694.30321547 C-10.49747419 689.07287345 -10.4981766 683.84253144 -10.49893599 678.61218943 C-10.50102938 663.99044779 -10.50180008 649.36870622 -10.5015192 634.74696445 C-10.50150682 634.08107556 -10.50149444 633.41518667 -10.50148169 632.72911933 C-10.50099216 611.50477084 -10.4945643 590.28042847 -10.48396206 569.05608273 C-10.48361862 568.36748873 -10.48327518 567.67889473 -10.48292134 566.96943425 C-10.47732241 555.78642675 -10.47138832 544.60341942 -10.46543228 533.4204121 C-10.44182884 489.0620846 -10.43563749 444.70379148 -10.44604492 400.34545898 C-10.44669813 397.54226829 -10.44734944 394.7390776 -10.44800042 391.93588691 C-10.44816146 391.24281251 -10.44832249 390.5497381 -10.44848841 389.83566145 C-10.45026782 382.16043222 -10.45198996 374.48520298 -10.45364285 366.80997372 C-10.45379221 366.12171841 -10.45394158 365.4334631 -10.45409547 364.72435157 C-10.46209055 327.58964343 -10.45595891 290.45493959 -10.44494683 253.32023245 C-10.44379898 249.4010674 -10.4426558 245.48190235 -10.44152 241.56273729 C-10.44076475 238.96267924 -10.43999911 236.3626212 -10.43922299 233.76256316 C-10.43355553 214.31741839 -10.43490076 194.87228218 -10.43945122 175.42713737 C-10.44454953 153.32626004 -10.43874832 131.22541482 -10.41855692 109.12454551 C-10.40753742 96.74312783 -10.40480796 84.36177325 -10.41384545 71.9803536 C-10.41904112 63.72355279 -10.41342952 55.46680628 -10.39879211 47.21001689 C-10.39074009 42.49660895 -10.38754658 37.78332911 -10.39736467 33.06992161 C-10.40617985 28.78955635 -10.4014097 24.50943861 -10.38538523 20.22909624 C-10.38204635 18.6830255 -10.38382828 17.13693391 -10.39111372 15.59087673 C-10.40022781 13.50400566 -10.39112153 11.41800537 -10.37719816 9.33118004 C-10.37677114 8.17204709 -10.37634413 7.01291415 -10.37590417 5.81865596 C-10 3 -10 3 -8.69517512 1.1238325 C-5.86972788 -0.74932467 -3.27784261 -0.29266452 0 0 Z " fill="#050505" transform="translate(150,53)"/>
<path d="M0 0 C2.9425305 2.01331034 3.82340722 3.29362888 4.6875 6.75 C2.77612259 15.78560231 -8.60802735 23.66951191 -14.97265625 29.93359375 C-15.77574219 30.72894531 -16.57882812 31.52429688 -17.40625 32.34375 C-18.47842773 33.39852539 -18.47842773 33.39852539 -19.57226562 34.47460938 C-21.51202134 36.49239227 -23.33706026 38.53655835 -25.15820312 40.65820312 C-29.55566766 45.71933589 -34.30183668 50.40802027 -39.0625 55.125 C-40.02251375 56.0805937 -40.98222453 57.03649184 -41.94165039 57.99267578 C-45.46770473 61.50550592 -48.9992429 65.01280573 -52.53063965 68.52026367 C-55.52691208 71.49665517 -58.52102231 74.47519157 -61.51242065 77.45648193 C-62.8988534 78.83653133 -64.28837298 80.21347744 -65.67797852 81.59033203 C-69.36266583 85.26083017 -72.99663548 88.9224222 -76.37695312 92.87695312 C-80.76339042 97.98359946 -85.56670665 102.6780501 -90.34153748 107.41670227 C-92.06872676 109.13094586 -93.7926132 110.84845302 -95.51574707 112.56677246 C-99.79309807 116.83086477 -104.07591759 121.08945061 -108.35858154 125.34820557 C-111.98897448 128.95875702 -115.61723537 132.57142642 -119.24278259 136.18684387 C-120.9283829 137.86603635 -122.61700141 139.54215076 -124.30578613 141.21813965 C-129.1199868 146.00961207 -133.81337763 150.8384942 -138.22937012 156.0045166 C-142.0467395 160.30665637 -146.19764161 164.29672767 -150.28125 168.34375 C-151.26368378 169.32176419 -152.24581488 170.30008251 -153.22766113 171.27868652 C-156.83719318 174.87498984 -160.45220706 178.46576596 -164.06707764 182.05670166 C-167.1338075 185.10355579 -170.19837914 188.15255126 -173.26023865 191.20429993 C-174.67991157 192.61758629 -176.10266999 194.02777111 -177.5255127 195.43786621 C-181.92464855 199.82044802 -186.15134264 204.25907527 -190.19476318 208.96990967 C-193.88893949 213.1242187 -197.88784649 216.98760073 -201.8359375 220.8984375 C-203.24119419 222.29791004 -204.64644819 223.69738529 -206.05153847 225.09702492 C-208.49054154 227.52518172 -210.93288628 229.94997243 -213.375 232.375 C-216.31522626 235.29481636 -219.25482815 238.21524317 -222.19058228 241.13955688 C-224.01229343 242.95372265 -225.83626702 244.76561991 -227.66268921 246.57504272 C-228.48089142 247.38994171 -229.29909363 248.2048407 -230.14208984 249.04443359 C-230.86488129 249.76198822 -231.58767273 250.47954285 -232.33236694 251.21884155 C-234.07284495 252.90831885 -234.07284495 252.90831885 -235 255 C-235.66 255 -236.32 255 -237 255 C-237.2234761 255.54912048 -237.44695221 256.09824097 -237.67720032 256.66400146 C-239.39643981 259.70009302 -241.69732504 261.9520843 -244.16479492 264.37597656 C-244.69028931 264.90015671 -245.21578369 265.42433685 -245.75720215 265.96440125 C-247.49373867 267.69445361 -249.23714312 269.41741641 -250.98046875 271.140625 C-252.19446421 272.34834443 -253.40794221 273.55658421 -254.6209259 274.76531982 C-257.81814008 277.94923153 -261.02086273 281.12753906 -264.22521973 284.30426025 C-269.33691121 289.37286407 -274.44203535 294.44805781 -279.54372597 299.52672577 C-281.31760219 301.29047463 -283.09490712 303.0507115 -284.87260437 304.81060791 C-289.91995834 309.82062889 -294.8747689 314.85120472 -299.49263 320.26654053 C-301.97210537 323.11791084 -304.65225525 325.7566985 -307.34375 328.40625 C-307.91653687 328.97525024 -308.48932373 329.54425049 -309.07946777 330.13049316 C-311.48939282 332.52432686 -313.90534478 334.91204243 -316.32080078 337.30029297 C-318.10141939 339.06263896 -319.87887935 340.82812932 -321.65625 342.59375 C-322.18875366 343.11795532 -322.72125732 343.64216064 -323.26989746 344.18225098 C-326.062144 346.95667236 -328.71612967 349.79487056 -331.28125 352.78125 C-335.56466716 357.72863954 -340.19669353 362.3028916 -344.84375 366.90625 C-346.2619165 368.31862932 -347.68008007 369.73101161 -349.09807587 371.14356232 C-352.06066445 374.09312024 -355.02784021 377.03806312 -357.99420166 379.98382568 C-360.44581031 382.41877106 -362.89637331 384.85474816 -365.34436035 387.29333496 C-367.17068429 389.11220613 -368.99925361 390.92882652 -370.83044434 392.74279785 C-374.49895565 396.39684468 -378.10699981 400.0511665 -381.48193359 403.97973633 C-385.77872507 408.98037588 -390.45985792 413.58399957 -395.1328125 418.23046875 C-396.09754143 419.19332632 -397.06204516 420.15640956 -398.02633667 421.1197052 C-400.54398437 423.63357052 -403.06461798 426.14442017 -405.5859375 428.65460205 C-408.1463509 431.20475998 -410.70391927 433.75776767 -413.26171875 436.31054688 C-417.0077469 440.04865718 -420.75527717 443.785251 -424.50439453 447.52026367 C-425.29509338 448.3085556 -426.08579224 449.09684753 -426.90045166 449.9090271 C-428.15039499 451.15386513 -429.40165673 452.39738505 -430.65570068 453.63809204 C-432.50536102 455.47132831 -434.23233766 457.28654978 -435.875 459.3125 C-438.26557803 461.2109002 -439.80084968 461.56609968 -442.83251953 461.48413086 C-447.78581394 460.37775749 -451.88702644 456.96430687 -456 454.125 C-457.02891357 453.43390137 -458.05782715 452.74280273 -459.11791992 452.03076172 C-462.08768274 450.03352692 -465.04425379 448.01789052 -468 446 C-469.87816485 444.73891544 -471.76065192 443.4846954 -473.64501953 442.23291016 C-474.77110991 441.4847113 -475.89575241 440.73432936 -477.01904297 439.98193359 C-483.18699581 435.85272524 -489.40868311 431.8058426 -495.625 427.75 C-506.2175887 420.83758993 -516.76213004 413.85602135 -527.27490234 406.82275391 C-528.62382568 405.92049072 -528.62382568 405.92049072 -530 405 C-530.53788147 404.64017029 -531.07576294 404.28034058 -531.62994385 403.90960693 C-541.38523389 397.38629309 -551.18155407 390.92778396 -561 384.5 C-569.69494217 378.80773361 -578.37992002 373.10264873 -587.01379395 367.31799316 C-591.26468165 364.47368192 -595.56518947 361.72036838 -599.8984375 359.00390625 C-602.47458566 357.33946796 -605.00950233 355.63590661 -607.5390625 353.90234375 C-608.34561279 353.35304199 -609.15216309 352.80374023 -609.9831543 352.23779297 C-611.5966683 351.13643685 -613.20509286 350.02758051 -614.80786133 348.91064453 C-615.55060303 348.4051709 -616.29334473 347.89969727 -617.05859375 347.37890625 C-617.72173584 346.9207251 -618.38487793 346.46254395 -619.06811523 345.99047852 C-621.23140774 344.69584522 -621.23140774 344.69584522 -625 345 C-627.35187346 346.65856387 -629.49938905 348.33355662 -631.6875 350.1875 C-633.03367882 351.29736735 -634.38139304 352.40537446 -635.73046875 353.51171875 C-636.43091309 354.08841309 -637.13135742 354.66510742 -637.85302734 355.25927734 C-641.34065926 358.08697982 -644.91997402 360.79091294 -648.5 363.5 C-655.32276109 368.68293584 -662.03484746 373.98943749 -668.7109375 379.359375 C-673.73219722 383.39802859 -678.82995489 387.33428144 -683.94140625 391.2578125 C-692.0062444 397.44854058 -700.01464268 403.70715488 -708 410 C-717.85903883 417.76531056 -727.75278025 425.48494244 -737.66357422 433.18408203 C-740.00717053 435.00557308 -742.34949427 436.82868777 -744.69140625 438.65234375 C-746.23173871 439.85160375 -747.77210298 441.05082292 -749.3125 442.25 C-750.06539307 442.83612061 -750.81828613 443.42224121 -751.59399414 444.02612305 C-755.94493433 447.4103997 -760.31000298 450.77518642 -764.6875 454.125 C-769.25634151 457.63025637 -773.764269 461.20170572 -778.25 464.8125 C-784.31200151 469.69195941 -790.46750858 474.4355796 -796.66308594 479.14379883 C-801.9564213 483.17632953 -807.16172728 487.30653029 -812.34033203 491.48486328 C-816.95751466 495.1978122 -821.65182001 498.79825432 -826.375 502.375 C-833.04986862 507.43432931 -839.53294667 512.69048006 -845.97167969 518.04589844 C-850.86769099 522.10506248 -855.86116882 525.95577291 -860.98046875 529.73046875 C-864.52567115 532.39510341 -867.98365125 535.15612072 -871.4375 537.9375 C-876.62996803 542.11796055 -881.86369564 546.2329373 -887.15820312 550.28320312 C-892.89157131 554.672485 -898.56263009 559.13981753 -904.23388672 563.60888672 C-907.15371048 565.90874237 -910.07701893 568.20415945 -913 570.5 C-914.16668361 571.4166451 -915.33335027 572.33331177 -916.5 573.25 C-918.83333333 575.08333333 -921.16666667 576.91666667 -923.5 578.75 C-924.07717773 579.2035083 -924.65435547 579.6570166 -925.24902344 580.12426758 C-926.41890016 581.04343313 -927.58882223 581.96254095 -928.75878906 582.8815918 C-931.62671157 585.13456094 -934.4939099 587.38843723 -937.359375 589.64453125 C-943.8079114 594.71990653 -950.27167375 599.7751941 -956.75 604.8125 C-957.88429443 605.69470215 -957.88429443 605.69470215 -959.04150391 606.59472656 C-962.88599092 609.58352877 -966.73352706 612.56829196 -970.5859375 615.546875 C-977.83507119 621.15837976 -985.03656876 626.81137257 -992.125 632.625 C-997.95705317 637.40774451 -1003.91537614 641.97551137 -1009.97631836 646.46337891 C-1016.32587601 651.18895873 -1022.45798007 656.16547982 -1028.57421875 661.1875 C-1029.16122559 661.66832031 -1029.74823242 662.14914062 -1030.35302734 662.64453125 C-1031.85328684 663.87925416 -1033.34324201 665.12647054 -1034.83203125 666.375 C-1037 668 -1037 668 -1039 668 C-1039 668.66 -1039 669.32 -1039 670 C-1047.18462594 670.61770762 -1047.18462594 670.61770762 -1050.0625 668.4375 C-1051.39085839 664.98376819 -1051.47018873 662.68767857 -1051 659 C-1049.13873789 656.61769193 -1046.82479902 654.99550792 -1044.375 653.25 C-1043.69493896 652.73687256 -1043.01487793 652.22374512 -1042.31420898 651.69506836 C-1040.90405611 650.63128602 -1039.4875368 649.57589328 -1038.06494141 648.52880859 C-1035.0137978 646.26985124 -1032.03995889 643.91716046 -1029.0625 641.5625 C-1028.49587646 641.1188208 -1027.92925293 640.6751416 -1027.34545898 640.21801758 C-1022.83026314 636.68007117 -1018.37982235 633.0663052 -1013.9375 629.4375 C-1007.64425789 624.30162714 -1001.26221675 619.31073783 -994.8046875 614.38232422 C-984.89133224 606.78905887 -975.06681971 599.08439577 -965.3347168 591.26049805 C-961.40377803 588.10614523 -957.43930625 585.00138291 -953.4375 581.9375 C-943.80032475 574.55830316 -934.2724166 567.05760842 -924.875 559.375 C-919.42712547 554.92546092 -913.90393191 550.62026887 -908.25 546.43359375 C-896.88149204 537.97574122 -885.81807045 529.09173633 -874.68554688 520.32666016 C-871.79191173 518.04913794 -868.89580677 515.77475993 -866 513.5 C-864.83332204 512.5833477 -863.66665536 511.66668105 -862.5 510.75 C-831 486 -831 486 -799.5 461.25 C-798.92282227 460.7964917 -798.34564453 460.3429834 -797.75097656 459.87573242 C-796.58109984 458.95656687 -795.41117777 458.03745905 -794.24121094 457.1184082 C-791.37328843 454.86543906 -788.5060901 452.61156277 -785.640625 450.35546875 C-773.91700218 441.12818222 -762.16028458 431.94246503 -750.3125 422.875 C-745.01170775 418.80772544 -739.79211318 414.6469547 -734.58520508 410.46044922 C-730.07250078 406.83890678 -725.50706868 403.29483181 -720.9074707 399.78466797 C-716.78280475 396.62708294 -712.73046446 393.38626863 -708.6875 390.125 C-702.88438462 385.44893595 -696.96941761 380.94937072 -690.98779297 376.50488281 C-685.70765358 372.56693405 -680.5546325 368.48868858 -675.42700195 364.35498047 C-670.51199163 360.39582817 -665.53067827 356.53636092 -660.51953125 352.69921875 C-656.29215286 349.46146191 -652.08257643 346.20092672 -647.875 342.9375 C-647.10260986 342.34195312 -646.33021973 341.74640625 -645.53442383 341.1328125 C-642.17840027 338.53321234 -638.86131017 335.92608371 -635.6875 333.10546875 C-634.759375 332.28691406 -633.83125 331.46835937 -632.875 330.625 C-632.10929687 329.91601562 -631.34359375 329.20703125 -630.5546875 328.4765625 C-627.03742405 326.44364876 -623.91393871 326.2976462 -620 327 C-616.95703125 328.51953125 -616.95703125 328.51953125 -613.8125 330.8125 C-612.51632691 331.72940202 -611.21793393 332.6431698 -609.91796875 333.5546875 C-609.16692871 334.08674805 -608.41588867 334.61880859 -607.64208984 335.16699219 C-602.68099424 338.60886114 -597.60769755 341.88351671 -592.55026245 345.18139648 C-590.61159528 346.44624567 -588.67479691 347.71390889 -586.73852539 348.98242188 C-580.42504634 353.11758367 -574.0999161 357.23347044 -567.75 361.3125 C-559.13572218 366.85690663 -550.63219121 372.56819519 -542.11502075 378.25997925 C-527.12874361 388.27289879 -512.08166041 398.19269125 -497.02612305 408.10107422 C-486.32169354 415.14633925 -475.62457495 422.19942615 -465.00566101 429.37329102 C-462.74418035 430.89702042 -460.47593554 432.4104508 -458.20605469 433.92163086 C-457.05133331 434.6938136 -455.89971348 435.47065126 -454.75097656 436.25170898 C-453.06040926 437.39982675 -451.35978577 438.53140108 -449.65625 439.66015625 C-448.66431641 440.32668213 -447.67238281 440.99320801 -446.65039062 441.67993164 C-444.16654825 443.19366466 -444.16654825 443.19366466 -441.81958008 442.86132812 C-438.71804689 441.39316643 -436.53330036 438.87868233 -434.1875 436.4375 C-433.69185547 435.93669922 -433.19621094 435.43589844 -432.68554688 434.91992188 C-429.9533705 432.13148446 -427.34852824 429.26275319 -424.80786133 426.29907227 C-421.01963883 421.95826921 -417.00265461 417.89210705 -412.90625 413.84375 C-411.78071716 412.72389709 -411.78071716 412.72389709 -410.63244629 411.5814209 C-407.45783496 408.42298888 -404.27724084 405.27060721 -401.09716797 402.11767578 C-398.76059639 399.79930255 -396.42712001 397.4778448 -394.09375 395.15625 C-393.3862561 394.45705444 -392.67876221 393.75785889 -391.9498291 393.03747559 C-388.03872774 389.14544029 -384.34398399 385.14370481 -380.74118042 380.96603394 C-377.78928705 377.63293733 -374.62427351 374.52141805 -371.45703125 371.39453125 C-370.76614914 370.70743576 -370.07526703 370.02034027 -369.3634491 369.31242371 C-367.18224197 367.14330604 -364.99779866 364.97749504 -362.8125 362.8125 C-359.92025607 359.94693318 -357.03140025 357.07801175 -354.14453125 354.20703125 C-353.48717484 353.55797318 -352.82981842 352.9089151 -352.15254211 352.2401886 C-348.86257073 348.96780878 -345.87973296 345.64535083 -343 342 C-341.35749011 340.30952172 -339.68613892 338.64696421 -338 337 C-336.68389162 335.69152104 -335.36907868 334.38173849 -334.05517578 333.07104492 C-333.3173587 332.33645554 -332.57954163 331.60186615 -331.81936646 330.84501648 C-328.46840845 327.50747643 -325.1201221 324.16726155 -321.77197266 320.8269043 C-320.01180501 319.07176942 -318.25074143 317.31753257 -316.48876953 315.56420898 C-313.93021422 313.01786006 -311.37497018 310.4682273 -308.8203125 307.91796875 C-308.04092316 307.14374069 -307.26153381 306.36951263 -306.45852661 305.57182312 C-303.03936474 302.1530083 -299.70272121 298.71553138 -296.55029297 295.0480957 C-292.39802398 290.22889676 -287.89272451 285.78666285 -283.375 281.3125 C-282.46927246 280.41055908 -281.56354492 279.50861816 -280.63037109 278.5793457 C-277.27078694 275.23394556 -273.90668738 271.89311608 -270.54223633 268.5526123 C-267.23365649 265.267082 -263.92897519 261.97766209 -260.625 258.6875 C-259.76438965 257.83518799 -258.9037793 256.98287598 -258.01708984 256.10473633 C-254.43797291 252.54007691 -250.92070755 248.976672 -247.63671875 245.13671875 C-243.30009278 240.09300692 -238.56195959 235.45031975 -233.84365845 230.76849365 C-232.15007138 229.0878576 -230.45979223 227.40395371 -228.77026367 225.71923828 C-224.57638982 221.53861989 -220.37704601 217.3635102 -216.17785645 213.18823242 C-212.61792169 209.64814283 -209.06012179 206.10593278 -205.5050354 202.56097412 C-203.85267468 200.91501894 -202.19729535 199.27214355 -200.54174805 197.62939453 C-195.77189245 192.88250457 -191.1278153 188.09345388 -186.75146484 182.97631836 C-183.07901247 178.83239558 -179.08841049 174.98893487 -175.15625 171.09375 C-173.7380835 169.68137068 -172.31991993 168.26898839 -170.90192413 166.85643768 C-167.93933555 163.90687976 -164.97215979 160.96193688 -162.00579834 158.01617432 C-159.55418969 155.58122894 -157.10362669 153.14525184 -154.65563965 150.70666504 C-152.82931571 148.88779387 -151.00074639 147.07117348 -149.16955566 145.25720215 C-145.50580352 141.60789572 -141.90239585 137.95922025 -138.53393555 134.03393555 C-134.16009355 128.94363564 -129.37744034 124.27268638 -124.61328125 119.55078125 C-123.62366159 118.56557914 -122.63434332 117.58007422 -121.64530945 116.59428406 C-118.53720832 113.49749959 -115.42515304 110.40470829 -112.3125 107.3125 C-108.69085099 103.71455105 -105.07089542 100.1149304 -101.45512962 96.51106834 C-100.01700539 95.07937691 -98.57588201 93.6507534 -97.13459778 92.22224426 C-96.25655991 91.34750961 -95.37852203 90.47277496 -94.47387695 89.5715332 C-93.70445267 88.80734573 -92.93502838 88.04315826 -92.14228821 87.2558136 C-89.96006281 85.02388137 -89.96006281 85.02388137 -88.03288269 82.52677917 C-85.8478482 79.81088235 -83.49441716 77.43403747 -81 75 C-80.05401116 74.05862844 -79.10926084 73.11601108 -78.16558838 72.1723175 C-77.12115398 71.13089064 -76.07669893 70.08948449 -75.03222656 69.0480957 C-69.20707412 63.2392279 -63.38442401 57.42785867 -57.56322098 51.61503315 C-54.04622809 48.10328208 -50.52829622 44.59248191 -47.00830078 41.08374023 C-43.5963297 37.68260421 -40.18678064 34.27905772 -36.77892303 30.87380028 C-35.47998576 29.5767134 -34.18016738 28.28050828 -32.8794632 26.98519325 C-31.06738919 25.1803396 -29.25842953 23.37242014 -27.45019531 21.5637207 C-26.90995224 21.02707291 -26.36970917 20.49042511 -25.81309509 19.93751526 C-23.06373798 17.22789109 -23.06373798 17.22789109 -21 14 C-20.34 14 -19.68 14 -19 14 C-18.75121094 13.42507812 -18.50242187 12.85015625 -18.24609375 12.2578125 C-16.82026062 9.67432802 -15.16797328 7.9373444 -13.0625 5.875 C-12.37285156 5.19179687 -11.68320313 4.50859375 -10.97265625 3.8046875 C-7.25165203 0.40052127 -5.01780284 -0.61442484 0 0 Z " fill="#080708" transform="translate(1273,205)"/>
<path d="M0 0 C0.33 0.99 0.66 1.98 1 3 C-8.9 12.9 -18.8 22.8 -29 33 C-29.66 32.67 -30.32 32.34 -31 32 C-30.33991943 31.34515625 -29.67983887 30.6903125 -28.99975586 30.015625 C-26.51703534 27.55009874 -24.03669808 25.08222166 -21.55786133 22.61279297 C-20.49107703 21.55099139 -19.42339147 20.49009442 -18.35473633 19.43017578 C-12.34617331 13.46945613 -6.47851465 7.4596256 -1 1 C-0.67 0.67 -0.34 0.34 0 0 Z " fill="#DFDEE0" transform="translate(985,512)"/>
<path d="M0 0 C0.33 0.99 0.66 1.98 1 3 C0.0479279 4.00596297 -0.91187346 5.00461563 -1.875 6 C-2.40867187 6.556875 -2.94234375 7.11375 -3.4921875 7.6875 C-5 9 -5 9 -7 9 C-5.44499019 5.18315774 -2.96404505 2.80804268 0 0 Z " fill="#CDCBCD" transform="translate(985,512)"/>
<path d="M0 0 C0.33 0.99 0.66 1.98 1 3 C-0.65 4.65 -2.3 6.3 -4 8 C-4.99 7.67 -5.98 7.34 -7 7 C-4.69 4.69 -2.38 2.38 0 0 Z " fill="#CECCCD" transform="translate(1151,343)"/>
<path d="M0 0 C0.33 0.66 0.66 1.32 1 2 C-0.98 4.31 -2.96 6.62 -5 9 C-5.66 8.67 -6.32 8.34 -7 8 C-4.69 5.36 -2.38 2.72 0 0 Z " fill="#D3D2D3" transform="translate(1143,351)"/>
</svg>
